<svg version="1.1" xmlns="http://www.w3.org/2000/svg" viewBox="0 0 1908.9246474679576 794.6305409950218" width="3817.849294935915" height="1589.2610819900435">
  <!-- svg-source:excalidraw -->
  
  <defs>
    <style class="style-fonts">
      @font-face {
        font-family: "Virgil";
        src: url("https://excalidraw.com/Virgil.woff2");
      }
      @font-face {
        font-family: "Cascadia";
        src: url("https://excalidraw.com/Cascadia.woff2");
      }
      @font-face {
        font-family: "Assistant";
        src: url("https://app.excalidraw.com//dist/excalidraw-assets/Assistant-Regular.woff2");
      }
    </style>
    
  </defs>
  <g stroke-linecap="round"><g transform="translate(1896.548641622086 12.843553523153105) rotate(0 -943.274320811043 0)"><path d="M0 0 C-745.02 -1.73, -1491.16 -1.51, -1886.55 0 M0 0 C-474.4 -3.52, -948.37 -4.06, -1886.55 0" stroke="#1e1e1e" stroke-width="2" fill="none"></path></g></g><mask></mask><g transform="translate(55.05399332103684 350.42233032632623) rotate(0 155.84400939941406 45)"><text x="155.84400939941406" y="0" font-family="Virgil, Segoe UI Emoji" font-size="36px" fill="#1e1e1e" text-anchor="middle" style="white-space: pre;" direction="ltr" dominant-baseline="text-before-edge">Symbolic Executor</text><text x="155.84400939941406" y="45" font-family="Virgil, Segoe UI Emoji" font-size="36px" fill="#1e1e1e" text-anchor="middle" style="white-space: pre;" direction="ltr" dominant-baseline="text-before-edge">(Javaagent)</text></g><g transform="translate(584.8190925535101 216.17480108830352) rotate(0 176.0399932861328 67.5)"><text x="0" y="0" font-family="Virgil, Segoe UI Emoji" font-size="36px" fill="#1e1e1e" text-anchor="start" style="white-space: pre;" direction="ltr" dominant-baseline="text-before-edge">IID: 3078</text><text x="0" y="45" font-family="Virgil, Segoe UI Emoji" font-size="36px" fill="#1e1e1e" text-anchor="start" style="white-space: pre;" direction="ltr" dominant-baseline="text-before-edge">Branched: False</text><text x="0" y="90" font-family="Virgil, Segoe UI Emoji" font-size="36px" fill="#1e1e1e" text-anchor="start" style="white-space: pre;" direction="ltr" dominant-baseline="text-before-edge">Constraint: I1 != 0 </text></g><g transform="translate(677.1614708688321 141.56464263460805) rotate(0 59.16600036621094 22.5)"><text x="0" y="0" font-family="Virgil, Segoe UI Emoji" font-size="36px" fill="#1e1e1e" text-anchor="start" style="white-space: pre;" direction="ltr" dominant-baseline="text-before-edge">Branch</text></g><g transform="translate(799.2872421511281 158.45576821621546) rotate(0 9.631999969482422 17.5)"><text x="0" y="0" font-family="Virgil, Segoe UI Emoji" font-size="28px" fill="#1e1e1e" text-anchor="start" style="white-space: pre;" direction="ltr" dominant-baseline="text-before-edge">0</text></g><g stroke-linecap="round"><g transform="translate(936.8083316474817 201.52860398028758) rotate(0 -188.5289587867369 0)"><path d="M0 0 C-82.77 1.04, -165.26 0.97, -377.06 0 M0 0 C-99.27 -2.53, -197.42 -1.98, -377.06 0" stroke="#1e1e1e" stroke-width="2" fill="none"></path></g></g><mask></mask><g stroke-linecap="round" transform="translate(557.7271257275779 127.77822365114412) rotate(0 191.4423481401521 119.63200054888154)"><path d="M0 0 C109.44 -0.73, 215.49 -1.02, 382.88 0 M0 0 C141.94 0.62, 284.21 0.73, 382.88 0 M382.88 0 C381.03 70.05, 380.27 135.61, 382.88 239.26 M382.88 0 C384.29 79.18, 383.86 157.36, 382.88 239.26 M382.88 239.26 C294.19 238.98, 208.1 238.48, 0 239.26 M382.88 239.26 C240.69 240.28, 98.03 239.86, 0 239.26 M0 239.26 C-0.26 145.19, 1.26 48.04, 0 0 M0 239.26 C0.23 171.94, -0.89 106.39, 0 0" stroke="#1e1e1e" stroke-width="2" fill="none"></path></g><g transform="translate(1101.4016425828331 216.8829675241352) rotate(0 134.89199829101562 67.5)"><text x="0" y="0" font-family="Virgil, Segoe UI Emoji" font-size="36px" fill="#1e1e1e" text-anchor="start" style="white-space: pre;" direction="ltr" dominant-baseline="text-before-edge">IID: 3093</text><text x="0" y="45" font-family="Virgil, Segoe UI Emoji" font-size="36px" fill="#1e1e1e" text-anchor="start" style="white-space: pre;" direction="ltr" dominant-baseline="text-before-edge">Branched: True</text><text x="0" y="90" font-family="Virgil, Segoe UI Emoji" font-size="36px" fill="#1e1e1e" text-anchor="start" style="white-space: pre;" direction="ltr" dominant-baseline="text-before-edge">Constraint: ... </text></g><g transform="translate(1193.7440208981552 142.27280907043973) rotate(0 59.16600036621094 22.5)"><text x="0" y="0" font-family="Virgil, Segoe UI Emoji" font-size="36px" fill="#1e1e1e" text-anchor="start" style="white-space: pre;" direction="ltr" dominant-baseline="text-before-edge">Branch</text></g><g transform="translate(1317.8697921804512 159.16393465204715) rotate(0 3.7939999103546143 17.5)"><text x="0" y="0" font-family="Virgil, Segoe UI Emoji" font-size="28px" fill="#1e1e1e" text-anchor="start" style="white-space: pre;" direction="ltr" dominant-baseline="text-before-edge">1</text></g><g stroke-linecap="round"><g transform="translate(1453.3908816768048 202.23677041611927) rotate(0 -188.5289587867369 0)"><path d="M0 0 C-114.5 -1.93, -227.69 0.08, -377.06 0 M0 0 C-151.32 1.82, -301.1 2.15, -377.06 0" stroke="#1e1e1e" stroke-width="2" fill="none"></path></g></g><mask></mask><g stroke-linecap="round" transform="translate(1074.309675756901 128.48639008697592) rotate(0 191.4423481401521 119.63200054888154)"><path d="M0 0 C96.84 2.76, 195.38 2.66, 382.88 0 M0 0 C150.18 1.03, 299.94 0.68, 382.88 0 M382.88 0 C382.01 67.51, 382.64 131.22, 382.88 239.26 M382.88 0 C383.79 77.05, 384.82 153.78, 382.88 239.26 M382.88 239.26 C253.98 237.29, 128.42 237.69, 0 239.26 M382.88 239.26 C297.3 239.93, 210.96 239.02, 0 239.26 M0 239.26 C-0.56 162.89, -0.64 85.4, 0 0 M0 239.26 C-1.18 189.11, -2.18 140.57, 0 0" stroke="#1e1e1e" stroke-width="2" fill="none"></path></g><g stroke-linecap="round"><g transform="translate(439.8402291404172 238.22685286664023) rotate(89.99999999999994 0 10.641688535427306)"><path d="M0 0 C0.25 6.08, 0.66 12.48, 0 21.28 M0 0 C-0.33 6.77, 0.55 12.31, 0 21.28" stroke="#2f9e44" stroke-width="2" fill="none"></path></g></g><mask></mask><g stroke-linecap="round"><g transform="translate(405.7717107302491 237.58936717417862) rotate(89.99999999999994 0 10.641688535427306)"><path d="M0 0 C0.69 5.72, -0.01 12.61, 0 21.28 M0 0 C0.39 6.21, -0.16 13.09, 0 21.28" stroke="#2f9e44" stroke-width="2" fill="none"></path></g></g><mask></mask><g stroke-linecap="round"><g transform="translate(461.94595232064046 248.8766099215137) rotate(0 31.258370857897688 0)"><path d="M0 0 C17.16 2.11, 33.19 1.95, 62.52 0 M0 0 C16.12 -0.39, 31.93 0.09, 62.52 0" stroke="#2f9e44" stroke-width="2" fill="none"></path></g><g transform="translate(461.94595232064046 248.8766099215137) rotate(0 31.258370857897688 0)"><path d="M60.75 1.02 L49.27 7.94 L49.81 -4.76 L60.66 0.91" stroke="none" stroke-width="0" fill="#2f9e44" fill-rule="evenodd"></path><path d="M62.52 0 C60.07 2.84, 56.7 4.34, 48.91 6.32 M62.52 0 C58.74 1.08, 54.76 3.09, 48.91 6.32 M48.91 6.32 C49.18 3.68, 48.26 0.41, 48.93 -6.36 M48.91 6.32 C49.49 1.78, 49.11 -2.43, 48.93 -6.36 M48.93 -6.36 C51.55 -3.81, 56.04 -3.86, 62.52 0 M48.93 -6.36 C54.58 -3.79, 59.04 -1.77, 62.52 0 M62.52 0 C62.52 0, 62.52 0, 62.52 0 M62.52 0 C62.52 0, 62.52 0, 62.52 0" stroke="#2f9e44" stroke-width="2" fill="none"></path></g></g><mask></mask><g stroke-linecap="round"><g transform="translate(975.9228756454578 248.7080405376039) rotate(0 31.25837085789766 0)"><path d="M0 0 C16.6 0.86, 37.5 0.4, 62.52 0 M0 0 C19.24 0.93, 40.11 1.04, 62.52 0" stroke="#2f9e44" stroke-width="2" fill="none"></path></g><g transform="translate(975.9228756454578 248.7080405376039) rotate(0 31.25837085789766 0)"><path d="M62.15 0.93 L47.76 5 L48.21 -5.38 L60.88 1.4" stroke="none" stroke-width="0" fill="#2f9e44" fill-rule="evenodd"></path><path d="M62.52 0 C57.28 2.91, 55.29 4.55, 49.13 6.77 M62.52 0 C57.78 2.8, 54.22 5.05, 49.13 6.77 M49.13 6.77 C50.24 1.99, 48.68 -1.43, 48.73 -5.9 M49.13 6.77 C49.7 3.14, 49.66 -0.65, 48.73 -5.9 M48.73 -5.9 C52.64 -4.33, 58.61 -0.2, 62.52 0 M48.73 -5.9 C54.08 -4.16, 59.22 -1.21, 62.52 0 M62.52 0 C62.52 0, 62.52 0, 62.52 0 M62.52 0 C62.52 0, 62.52 0, 62.52 0" stroke="#2f9e44" stroke-width="2" fill="none"></path></g></g><mask></mask><g stroke-linecap="round"><g transform="translate(1535.6695388774046 241.2526820467316) rotate(89.99999999999994 0 10.641688535427306)"><path d="M0 0 C-0.14 7.77, -0.07 16.87, 0 21.28 M0 0 C-0.18 5.59, -0.57 11.66, 0 21.28" stroke="#2f9e44" stroke-width="2" fill="none"></path></g></g><mask></mask><g stroke-linecap="round"><g transform="translate(1501.6010204672366 240.61519635426987) rotate(89.99999999999994 0 10.641688535427306)"><path d="M0 0 C-0.11 5.02, -0.39 8.55, 0 21.28 M0 0 C-0.51 4.82, 0.1 8.68, 0 21.28" stroke="#2f9e44" stroke-width="2" fill="none"></path></g></g><mask></mask><g stroke-linecap="round"><g transform="translate(1557.775262057628 251.90243910160495) rotate(0 31.258370857897717 0)"><path d="M0 0 C15.01 -1.76, 29.6 -0.62, 62.52 0 M0 0 C18.91 -0.65, 37.68 -1.17, 62.52 0" stroke="#2f9e44" stroke-width="2" fill="none"></path></g><g transform="translate(1557.775262057628 251.90243910160495) rotate(0 31.258370857897717 0)"><path d="M64.38 0.31 L47.1 5.3 L50.31 -6.31 L62.2 1.63" stroke="none" stroke-width="0" fill="#2f9e44" fill-rule="evenodd"></path><path d="M62.52 0 C58.48 0.39, 54.13 2.73, 48.73 5.92 M62.52 0 C58.52 1.86, 54.47 3.23, 48.73 5.92 M48.73 5.92 C50.08 0.05, 48.66 -4.42, 49.12 -6.75 M48.73 5.92 C49.22 2.47, 48.94 -2.06, 49.12 -6.75 M49.12 -6.75 C50.92 -3.79, 53.86 -4.44, 62.52 0 M49.12 -6.75 C53.6 -4.69, 57.48 -2.37, 62.52 0 M62.52 0 C62.52 0, 62.52 0, 62.52 0 M62.52 0 C62.52 0, 62.52 0, 62.52 0" stroke="#2f9e44" stroke-width="2" fill="none"></path></g></g><mask></mask><g transform="translate(584.7970092999678 526.8915017057598) rotate(0 176.0399932861328 67.49999999999994)"><text x="0" y="0" font-family="Virgil, Segoe UI Emoji" font-size="36px" fill="#1e1e1e" text-anchor="start" style="white-space: pre;" direction="ltr" dominant-baseline="text-before-edge">IID: 3078</text><text x="0" y="45" font-family="Virgil, Segoe UI Emoji" font-size="36px" fill="#1e1e1e" text-anchor="start" style="white-space: pre;" direction="ltr" dominant-baseline="text-before-edge">Branched: False</text><text x="0" y="90" font-family="Virgil, Segoe UI Emoji" font-size="36px" fill="#1e1e1e" text-anchor="start" style="white-space: pre;" direction="ltr" dominant-baseline="text-before-edge">Constraint: I1 != 0 </text></g><g transform="translate(677.1393876152898 452.2813432520643) rotate(0 59.16600036621094 22.5)"><text x="0" y="0" font-family="Virgil, Segoe UI Emoji" font-size="36px" fill="#1e1e1e" text-anchor="start" style="white-space: pre;" direction="ltr" dominant-baseline="text-before-edge">Branch</text></g><g transform="translate(799.2651588975857 469.1724688336717) rotate(0 9.631999969482422 17.5)"><text x="0" y="0" font-family="Virgil, Segoe UI Emoji" font-size="28px" fill="#1e1e1e" text-anchor="start" style="white-space: pre;" direction="ltr" dominant-baseline="text-before-edge">0</text></g><g stroke-linecap="round"><g transform="translate(936.7862483939394 512.2453045977438) rotate(0 -188.5289587867369 0)"><path d="M0 0 C-146.66 0.79, -291.83 -0.07, -377.06 0 M0 0 C-94.02 0.43, -187.7 1, -377.06 0" stroke="#1e1e1e" stroke-width="2" fill="none"></path></g></g><mask></mask><g stroke-linecap="round" transform="translate(557.7050424740356 438.49492426860024) rotate(0 191.4423481401521 119.63200054888154)"><path d="M0 0 C131.69 -0.64, 263.41 1.02, 382.88 0 M0 0 C129.97 1.95, 260.38 1.95, 382.88 0 M382.88 0 C382.8 84.22, 380.84 168.14, 382.88 239.26 M382.88 0 C383.45 64.36, 383.81 126.8, 382.88 239.26 M382.88 239.26 C254.94 240.56, 126.96 240.57, 0 239.26 M382.88 239.26 C297.69 240.82, 213.45 240.93, 0 239.26 M0 239.26 C2.33 171.31, 0.38 103.84, 0 0 M0 239.26 C0.36 170.09, 1.33 101.87, 0 0" stroke="#1e1e1e" stroke-width="2" fill="none"></path></g><g transform="translate(1101.379559329291 527.5996681415913) rotate(0 102.34800720214844 67.49999999999994)"><text x="0" y="0" font-family="Virgil, Segoe UI Emoji" font-size="36px" fill="#1e1e1e" text-anchor="start" style="white-space: pre;" direction="ltr" dominant-baseline="text-before-edge">Symbolic: I1</text><text x="0" y="45" font-family="Virgil, Segoe UI Emoji" font-size="36px" fill="#1e1e1e" text-anchor="start" style="white-space: pre;" direction="ltr" dominant-baseline="text-before-edge">Concrete: 0</text><text x="0" y="90" font-family="Virgil, Segoe UI Emoji" font-size="36px" fill="#1e1e1e" text-anchor="start" style="white-space: pre;" direction="ltr" dominant-baseline="text-before-edge">Bounds: ...</text></g><g transform="translate(1218.714764708941 452.98950968789586) rotate(0 41.38199996948242 22.5)"><text x="0" y="0" font-family="Virgil, Segoe UI Emoji" font-size="36px" fill="#1e1e1e" text-anchor="start" style="white-space: pre;" direction="ltr" dominant-baseline="text-before-edge">Leaf</text></g><g transform="translate(1301.185824217357 469.8806352695033) rotate(0 9.631999969482422 17.5)"><text x="0" y="0" font-family="Virgil, Segoe UI Emoji" font-size="28px" fill="#1e1e1e" text-anchor="start" style="white-space: pre;" direction="ltr" dominant-baseline="text-before-edge">0</text></g><g stroke-linecap="round"><g transform="translate(1453.3687984232624 512.9534710335754) rotate(0 -188.5289587867369 0)"><path d="M0 0 C-87.09 -3.02, -174.33 -1.24, -377.06 0 M0 0 C-91.61 1.12, -183.33 1.25, -377.06 0" stroke="#1e1e1e" stroke-width="2" fill="none"></path></g></g><mask></mask><g stroke-linecap="round" transform="translate(1074.2875925033586 439.20309070443204) rotate(0 191.4423481401521 119.63200054888154)"><path d="M0 0 C83.18 2.77, 165.43 3.05, 382.88 0 M0 0 C138.73 1.03, 278.51 1.18, 382.88 0 M382.88 0 C382.67 69.88, 383.76 138.94, 382.88 239.26 M382.88 0 C385.03 63.87, 384.2 129.72, 382.88 239.26 M382.88 239.26 C290.53 240.06, 197.88 240.43, 0 239.26 M382.88 239.26 C250.2 237.62, 116.04 237.36, 0 239.26 M0 239.26 C0.98 187.64, 2.7 138.45, 0 0 M0 239.26 C1.32 189.89, 1.62 139.82, 0 0" stroke="#1e1e1e" stroke-width="2" fill="none"></path></g><g stroke-linecap="round"><g transform="translate(439.81814588687485 548.9435534840964) rotate(89.99999999999994 0 10.641688535427306)"><path d="M0 0 C-0.56 5.17, 0.65 8.53, 0 21.28 M0 0 C0.09 5.2, -0.13 10.82, 0 21.28" stroke="#c2255c" stroke-width="2" fill="none"></path></g></g><mask></mask><g stroke-linecap="round"><g transform="translate(405.7496274767068 548.3060677916349) rotate(89.99999999999994 0 10.641688535427306)"><path d="M0 0 C0.57 7.27, -0.6 14.35, 0 21.28 M0 0 C-0.02 6.01, 0.2 10.88, 0 21.28" stroke="#c2255c" stroke-width="2" fill="none"></path></g></g><mask></mask><g stroke-linecap="round"><g transform="translate(461.92386906709817 559.59331053897) rotate(0 31.258370857897688 0)"><path d="M0 0 C22.51 -1.26, 46.51 0.82, 62.52 0 M0 0 C18.58 -1.37, 36.84 -0.71, 62.52 0" stroke="#c2255c" stroke-width="2" fill="none"></path></g><g transform="translate(461.92386906709817 559.59331053897) rotate(0 31.258370857897688 0)"><path d="M61.59 0.57 L49.45 4.08 L48.82 -8.17 L63.48 0.68" stroke="none" stroke-width="0" fill="#c2255c" fill-rule="evenodd"></path><path d="M62.52 0 C56.55 1.15, 51.67 4.96, 48.76 5.97 M62.52 0 C58.74 1.13, 54.72 3.36, 48.76 5.97 M48.76 5.97 C48.1 2.91, 48.02 -2.37, 49.1 -6.7 M48.76 5.97 C49.23 1, 49 -4.14, 49.1 -6.7 M49.1 -6.7 C52.37 -3.18, 57.46 -3.31, 62.52 0 M49.1 -6.7 C52.51 -5.16, 55.13 -2.76, 62.52 0 M62.52 0 C62.52 0, 62.52 0, 62.52 0 M62.52 0 C62.52 0, 62.52 0, 62.52 0" stroke="#c2255c" stroke-width="2" fill="none"></path></g></g><mask></mask><g stroke-linecap="round"><g transform="translate(975.9007923919155 559.42474115506) rotate(0 31.258370857897717 0)"><path d="M0 0 C16.42 1.1, 34.02 0.24, 62.52 0 M0 0 C23.33 0.3, 46.18 0.29, 62.52 0" stroke="#c2255c" stroke-width="2" fill="none"></path></g><g transform="translate(975.9007923919155 559.42474115506) rotate(0 31.258370857897717 0)"><path d="M63.21 -1.9 L48.71 5.03 L49.82 -5.51 L63.07 -0.1" stroke="none" stroke-width="0" fill="#c2255c" fill-rule="evenodd"></path><path d="M62.52 0 C58.28 2.17, 54.97 3.3, 48.99 6.49 M62.52 0 C57.81 2.04, 52.72 4.42, 48.99 6.49 M48.99 6.49 C48.03 1.44, 49.98 -3.79, 48.85 -6.19 M48.99 6.49 C48.82 2.76, 48.98 0.3, 48.85 -6.19 M48.85 -6.19 C53.17 -5.07, 57.06 -3.51, 62.52 0 M48.85 -6.19 C51.62 -4.13, 55.46 -3.98, 62.52 0 M62.52 0 C62.52 0, 62.52 0, 62.52 0 M62.52 0 C62.52 0, 62.52 0, 62.52 0" stroke="#c2255c" stroke-width="2" fill="none"></path></g></g><mask></mask><g stroke-linecap="round"><g transform="translate(1664.2882619812603 124.5024810305739) rotate(0 36.33516931897066 125.6731584910458)"><path d="M0 0 C23.81 0.29, 46.85 0.36, 72.67 0 M0 0 C22.66 0.32, 43.89 0.25, 72.67 0 M72.67 0 C75.5 65.37, 76.05 127.16, 72.67 251.35 M72.67 0 C71.74 51.6, 70.45 104.18, 72.67 251.35 M72.67 251.35 C46.95 249.77, 21.96 249.48, 0.86 251.35 M72.67 251.35 C57.53 251.39, 42.47 249.92, 0.86 251.35" stroke="#1e1e1e" stroke-width="2" fill="none"></path></g></g><mask></mask><g transform="translate(1756.8713475175675 231.49056793017235) rotate(0 57.93199920654297 17.5)"><text x="0" y="0" font-family="Virgil, Segoe UI Emoji" font-size="28px" fill="#1e1e1e" text-anchor="start" style="white-space: pre;" direction="ltr" dominant-baseline="text-before-edge">Trace 0</text></g><g stroke-linecap="round"><g transform="translate(1664.3704847273405 434.77007680498264) rotate(0 36.33516931897066 125.67315849104574)"><path d="M0 0 C25.91 0.82, 56.45 0.51, 72.67 0 M0 0 C28.71 0.9, 57.67 -0.44, 72.67 0 M72.67 0 C73.88 53.63, 74.08 107.02, 72.67 251.35 M72.67 0 C72.52 68.61, 73.1 136.44, 72.67 251.35 M72.67 251.35 C52.75 250.17, 31.66 249.52, 0.86 251.35 M72.67 251.35 C56.13 252.11, 40.07 250.65, 0.86 251.35" stroke="#1e1e1e" stroke-width="2" fill="none"></path></g></g><mask></mask><g transform="translate(1756.9535702636474 541.7581637045811) rotate(0 52.093997955322266 17.5)"><text x="0" y="0" font-family="Virgil, Segoe UI Emoji" font-size="28px" fill="#1e1e1e" text-anchor="start" style="white-space: pre;" direction="ltr" dominant-baseline="text-before-edge">Trace 1</text></g><g stroke-linecap="round"><g transform="translate(1898.9246474679576 779.5441413062305) rotate(0 -943.274320811043 0)"><path d="M0 0 C-609.97 7.28, -1220.49 6.27, -1886.55 0 M0 0 C-459.53 4.68, -918.37 4.7, -1886.55 0" stroke="#1e1e1e" stroke-width="2" fill="none"></path></g></g><mask></mask></svg>