<svg version="1.1" xmlns="http://www.w3.org/2000/svg" viewBox="0 0 1906.7335580693507 841.958269199439" width="3813.4671161387014" height="1683.916538398878">
  <!-- svg-source:excalidraw -->
  
  <defs>
    <style class="style-fonts">
      @font-face {
        font-family: "Virgil";
        src: url("https://excalidraw.com/Virgil.woff2");
      }
      @font-face {
        font-family: "Cascadia";
        src: url("https://excalidraw.com/Cascadia.woff2");
      }
      @font-face {
        font-family: "Assistant";
        src: url("https://app.excalidraw.com//dist/excalidraw-assets/Assistant-Regular.woff2");
      }
    </style>
    
  </defs>
  <g transform="translate(56.503394422021074 356.72809445657776) rotate(0 153.88198852539062 45)"><text x="153.88198852539062" y="0" font-family="Virgil, Segoe UI Emoji" font-size="36px" fill="#1e1e1e" text-anchor="middle" style="white-space: pre;" direction="ltr" dominant-baseline="text-before-edge">Symbolic Explorer</text><text x="153.88198852539062" y="45" font-family="Virgil, Segoe UI Emoji" font-size="36px" fill="#1e1e1e" text-anchor="middle" style="white-space: pre;" direction="ltr" dominant-baseline="text-before-edge">(FastAPI Server)</text></g><g stroke-linecap="round"><g transform="translate(1896.7335580693507 10) rotate(0 -943.274320811043 0)"><path d="M0 0 C-609.97 7.28, -1220.49 6.27, -1886.55 0 M0 0 C-459.53 4.68, -918.37 4.7, -1886.55 0" stroke="#1e1e1e" stroke-width="2" fill="none"></path></g></g><mask></mask><g stroke-linecap="round" transform="translate(1005.9736145728377 307.63859731203183) rotate(0 40.40127412654152 40.40127412654158)"><path d="M41.93 1 C48.72 0.53, 57.97 2.6, 63.95 6.77 C69.92 10.95, 75.14 19.21, 77.77 26.06 C80.4 32.91, 80.99 40.79, 79.73 47.85 C78.48 54.91, 75.39 63.28, 70.24 68.42 C65.09 73.56, 55.86 76.86, 48.83 78.71 C41.81 80.56, 34.82 81.69, 28.06 79.53 C21.31 77.38, 12.92 71.79, 8.31 65.79 C3.7 59.79, 1.02 50.88, 0.4 43.52 C-0.21 36.17, 1.24 28.08, 4.62 21.68 C8.01 15.27, 13.93 8.78, 20.74 5.09 C27.54 1.41, 41.11 0.05, 45.46 -0.43 C49.81 -0.92, 47.13 1.5, 46.82 2.18 M51.85 1.34 C58.38 3.11, 65.82 9.94, 70.65 15.5 C75.48 21.06, 79.72 27.49, 80.83 34.72 C81.94 41.94, 80.52 52.01, 77.3 58.85 C74.08 65.68, 67.77 72.23, 61.5 75.71 C55.23 79.18, 47.09 79.84, 39.69 79.67 C32.28 79.5, 23.14 78.77, 17.07 74.66 C10.99 70.55, 6.13 61.95, 3.25 55.03 C0.36 48.12, -1.25 40.34, -0.24 33.17 C0.77 26, 4.08 17.2, 9.31 12.03 C14.54 6.86, 24.06 3.67, 31.17 2.15 C38.27 0.64, 48.1 2.86, 51.92 2.94 C55.75 3.02, 54.36 1.9, 54.11 2.63" stroke="#1e1e1e" stroke-width="2" fill="none"></path></g><g transform="translate(1027.074172536885 320.9346918961653) rotate(0 13.086000442504883 22.5)"><text x="13.086000442504883" y="0" font-family="Virgil, Segoe UI Emoji" font-size="36px" fill="#1e1e1e" text-anchor="middle" style="white-space: pre;" direction="ltr" dominant-baseline="text-before-edge">B</text></g><g transform="translate(1053.370257498313 341.37282307725195) rotate(0 9.631999969482422 17.5)"><text x="9.631999969482422" y="0" font-family="Virgil, Segoe UI Emoji" font-size="28px" fill="#1e1e1e" text-anchor="middle" style="white-space: pre;" direction="ltr" dominant-baseline="text-before-edge">0</text></g><g stroke-linecap="round" transform="translate(781.7851759295481 550.086806598071) rotate(0 40.40127412654155 40.40127412654158)"><path d="M44.34 0.57 C51.14 0.32, 58.81 3.3, 64.61 7.65 C70.42 12, 76.61 19.77, 79.18 26.68 C81.75 33.6, 81.7 42.12, 80.02 49.16 C78.34 56.2, 74.16 63.89, 69.08 68.94 C64.01 73.99, 56.76 77.85, 49.57 79.45 C42.38 81.05, 33.03 81.04, 25.94 78.54 C18.85 76.04, 11.21 70.46, 7.03 64.45 C2.86 58.45, 1.05 49.82, 0.89 42.53 C0.72 35.23, 2.54 27.08, 6.04 20.68 C9.54 14.27, 14.97 7.5, 21.89 4.12 C28.8 0.75, 42.96 0.69, 47.51 0.41 C52.07 0.14, 49.6 1.85, 49.23 2.48 M32.66 0.95 C39.01 -0.85, 48.06 -1.08, 54.78 1.85 C61.5 4.77, 68.52 12.16, 72.99 18.49 C77.46 24.83, 81.49 32.63, 81.62 39.85 C81.74 47.08, 77.65 55.79, 73.74 61.84 C69.83 67.89, 64.42 73.1, 58.17 76.17 C51.91 79.24, 43.2 81.05, 36.21 80.28 C29.22 79.51, 22.14 76.19, 16.23 71.54 C10.33 66.89, 3.36 59.14, 0.77 52.38 C-1.82 45.62, -1.55 38.19, 0.69 31 C2.93 23.81, 8.63 14.42, 14.21 9.24 C19.8 4.06, 30.87 1.33, 34.19 -0.1 C37.5 -1.53, 33.91 -0.33, 34.1 0.67" stroke="#1e1e1e" stroke-width="2" fill="none"></path></g><g transform="translate(802.8857338935956 563.3829011822047) rotate(0 13.086000442504883 22.5)"><text x="13.086000442504883" y="0" font-family="Virgil, Segoe UI Emoji" font-size="36px" fill="#1e1e1e" text-anchor="middle" style="white-space: pre;" direction="ltr" dominant-baseline="text-before-edge">B</text></g><g transform="translate(835.0198189141513 583.8210323632914) rotate(0 3.7939999103546143 17.5)"><text x="3.7939999103546143" y="0" font-family="Virgil, Segoe UI Emoji" font-size="28px" fill="#1e1e1e" text-anchor="middle" style="white-space: pre;" direction="ltr" dominant-baseline="text-before-edge">1</text></g><g stroke-linecap="round" transform="translate(1231.30573505191 548.5346764490378) rotate(0 40.40127412654152 40.40127412654158)"><path d="M57.33 4.45 C64.06 6.82, 71.27 12.84, 75.32 18.74 C79.37 24.64, 81.79 32.54, 81.65 39.85 C81.51 47.15, 78.66 56.35, 74.48 62.56 C70.29 68.77, 63.34 74.16, 56.54 77.11 C49.74 80.06, 40.74 81.17, 33.66 80.26 C26.58 79.34, 19.47 76.52, 14.08 71.62 C8.69 66.73, 3.47 58.21, 1.35 50.9 C-0.78 43.59, -0.8 34.78, 1.34 27.75 C3.47 20.71, 8.5 13.36, 14.16 8.72 C19.83 4.07, 26.86 0.02, 35.32 -0.15 C43.79 -0.32, 59.22 5.38, 64.96 7.72 C70.71 10.06, 70.15 13.4, 69.79 13.87 M52.69 2.5 C59.59 4.27, 66.69 10.61, 71.33 16.16 C75.97 21.7, 79.82 28.97, 80.53 35.79 C81.25 42.62, 79.09 50.39, 75.64 57.12 C72.2 63.85, 65.94 72.14, 59.85 76.16 C53.77 80.17, 45.94 81.52, 39.13 81.2 C32.31 80.87, 24.9 78.56, 18.96 74.2 C13.02 69.84, 6.54 61.66, 3.47 55.04 C0.4 48.42, -0.5 41.47, 0.53 34.49 C1.55 27.51, 4.89 18.6, 9.62 13.15 C14.35 7.71, 21.92 3.5, 28.9 1.84 C35.89 0.18, 47.53 2.98, 51.52 3.21 C55.5 3.44, 52.85 2.71, 52.82 3.21" stroke="#1e1e1e" stroke-width="2" fill="none"></path></g><g transform="translate(1254.7102938704495 561.8307710331715) rotate(0 10.781999588012695 22.5)"><text x="10.781999588012695" y="0" font-family="Virgil, Segoe UI Emoji" font-size="36px" fill="#1e1e1e" text-anchor="middle" style="white-space: pre;" direction="ltr" dominant-baseline="text-before-edge">L</text></g><g transform="translate(1278.7023779773854 582.2689022142581) rotate(0 9.631999969482422 17.5)"><text x="9.631999969482422" y="0" font-family="Virgil, Segoe UI Emoji" font-size="28px" fill="#1e1e1e" text-anchor="middle" style="white-space: pre;" direction="ltr" dominant-baseline="text-before-edge">0</text></g><g stroke-linecap="round"><g transform="translate(1045.6859250317907 219.81595790674464) rotate(179.9999999999999 0 10.641688535427306)"><path d="M0 0 C-0.6 5.82, 0.94 9.91, 0 21.28 M0 0 C0.54 5.09, 0.47 10.35, 0 21.28" stroke="#1e1e1e" stroke-width="2" fill="none"></path></g></g><mask></mask><g stroke-linecap="round"><g transform="translate(1046.7280630487098 185.68247206290698) rotate(179.9999999999999 0 10.641688535427306)"><path d="M0 0 C0.92 6.7, -0.7 13.69, 0 21.28 M0 0 C0.51 8.64, 0.01 16.55, 0 21.28" stroke="#1e1e1e" stroke-width="2" fill="none"></path></g></g><mask></mask><g stroke-linecap="round"><g transform="translate(1053.1361907546786 219.14750277199641) rotate(179.9999999999999 0 10.641688535427306)"><path d="M0 0 C0.53 6.99, -0.47 14.87, 0 21.28 M0 0 C-0.31 7.28, 0.09 14.85, 0 21.28" stroke="#c2255c" stroke-width="2" fill="none"></path></g></g><mask></mask><g stroke-linecap="round"><g transform="translate(1054.1783287715978 185.01401692815875) rotate(179.9999999999999 0 10.641688535427306)"><path d="M0 0 C-0.52 7.98, 0.47 16, 0 21.28 M0 0 C0.09 8.37, -0.38 15.86, 0 21.28" stroke="#c2255c" stroke-width="2" fill="none"></path></g></g><mask></mask><g stroke-linecap="round"><g transform="translate(1038.0397417687539 219.1475027719962) rotate(179.9999999999999 0 10.641688535427306)"><path d="M0 0 C0.19 5.99, 0.87 13.15, 0 21.28 M0 0 C-0.3 8.43, 0.1 17.09, 0 21.28" stroke="#2f9e44" stroke-width="2" fill="none"></path></g></g><mask></mask><g stroke-linecap="round"><g transform="translate(1039.081879785673 185.01401692815853) rotate(179.9999999999999 0 10.641688535427306)"><path d="M0 0 C0.9 4.12, 0.97 8.43, 0 21.28 M0 0 C0.16 6.19, -0.17 11.42, 0 21.28" stroke="#2f9e44" stroke-width="2" fill="none"></path></g></g><mask></mask><g stroke-linecap="round"><g transform="translate(1046.0885145554246 254.2860330439064) rotate(179.9999999999999 -5.684341886080802e-14 23.284027083149567)"><path d="M0 0 C0.46 9.42, -0.48 20.27, 0 46.57 M0 0 C-0.54 17.83, -0.05 36.41, 0 46.57" stroke="#1e1e1e" stroke-width="2" fill="none"></path></g></g><mask></mask><g stroke-linecap="round"><g transform="translate(1053.3643988373024 253.61757790915703) rotate(179.9999999999999 -5.684341886080802e-14 23.434148102616973)"><path d="M0 0 C-0.15 15.38, 1.04 29.79, 0 46.87 M0 0 C-0.02 12.78, -0.05 25.33, 0 46.87" stroke="#c2255c" stroke-width="2" fill="none"></path></g></g><mask></mask><g stroke-linecap="round"><g transform="translate(1038.3622703651904 253.61757790915703) rotate(179.9999999999999 -5.684341886080802e-14 23.89441447238505)"><path d="M0 0 C0.81 10.26, -0.39 21.48, 0 47.79 M0 0 C0.18 12.01, 0.38 23.48, 0 47.79" stroke="#2f9e44" stroke-width="2" fill="none"></path></g></g><mask></mask><g stroke-linecap="round"><g transform="translate(1012.9053283221301 389.172524987868) rotate(0 -79.47635449582395 79.47635449582401)"><path d="M0 0 C-56.49 56.36, -114.27 111.18, -158.95 158.95 M0 0 C-48.97 50.76, -97.99 100.43, -158.95 158.95" stroke="#1e1e1e" stroke-width="2" fill="none"></path></g></g><mask></mask><g stroke-linecap="round"><g transform="translate(1079.037308762271 389.172524987868) rotate(0 79.50206146195933 79.50206146195933)"><path d="M0 0 C35.6 36.65, 72.74 72.87, 159 159 M0 0 C51.11 52.41, 104.42 104.48, 159 159" stroke="#1e1e1e" stroke-width="2" fill="none"></path></g></g><mask></mask><g stroke-linecap="round"><g transform="translate(1083.1640740691246 385.7403278347408) rotate(0 79.43956643289778 79.43956643289766)"><path d="M0 0 C44.62 41.94, 86.4 87.47, 158.88 158.88 M0 0 C47.95 49.36, 98.32 98.38, 158.88 158.88" stroke="#c2255c" stroke-width="2" fill="none"></path></g></g><mask></mask><g stroke-linecap="round"><g transform="translate(1008.4109806577633 385.256570140293) rotate(0 -79.78020124021427 79.78020124021418)"><path d="M0 0 C-43.08 42.82, -84.71 84.33, -159.56 159.56 M0 0 C-58.21 58.11, -115.62 117.23, -159.56 159.56" stroke="#2f9e44" stroke-width="2" fill="none"></path></g></g><mask></mask><g stroke-linecap="round"><g transform="translate(788.2847825574764 630.8445075784889) rotate(0 -14.412621166339918 14.412621166339932)"><path d="M0 0 C-10.87 10.6, -22.15 21.59, -28.83 28.83 M0 0 C-9.31 9.12, -17.99 17.93, -28.83 28.83" stroke="#1e1e1e" stroke-width="2" fill="none"></path></g></g><mask></mask><g stroke-linecap="round"><g transform="translate(854.4167629976174 631.2450996946568) rotate(0 14.458417789887449 14.458417789887449)"><path d="M0 0 C7.73 7.2, 15.51 15.97, 28.92 28.92 M0 0 C7.86 8.14, 15.88 15.91, 28.92 28.92" stroke="#1e1e1e" stroke-width="2" fill="none"></path></g></g><mask></mask><g stroke-linecap="round"><g transform="translate(858.5435283044709 627.4123104253617) rotate(0 14.384923780497843 14.384923780497843)"><path d="M0 0 C7.47 7.97, 14.53 13.94, 28.77 28.77 M0 0 C9.42 9.41, 19.2 19.41, 28.77 28.77" stroke="#c2255c" stroke-width="2" fill="none"></path></g></g><mask></mask><g stroke-linecap="round"><g transform="translate(783.7904348931096 626.9285527309139) rotate(0 -15.069207194477983 15.069207194478054)"><path d="M0 0 C-7.55 6.61, -14.37 14.53, -30.14 30.14 M0 0 C-9.66 9.14, -18.93 18.39, -30.14 30.14" stroke="#2f9e44" stroke-width="2" fill="none"></path></g></g><mask></mask><g stroke-linecap="round"><g transform="translate(748.7580509309024 670.6070828930051) rotate(0 -7.87856285617994 7.878562856179883)"><path d="M0 0 C-2.97 3.96, -7.68 6.81, -15.76 15.76 M0 0 C-5.78 6.36, -12.54 11.87, -15.76 15.76" stroke="#1e1e1e" stroke-width="2" fill="none"></path></g></g><mask></mask><g stroke-linecap="round"><g transform="translate(744.1305214039364 666.8243099080294) rotate(0 -7.712050587226429 7.712050587226372)"><path d="M0 0 C-4.5 3.69, -7.46 9.39, -15.42 15.42 M0 0 C-4.49 3.84, -8.37 8.16, -15.42 15.42" stroke="#2f9e44" stroke-width="2" fill="none"></path></g></g><mask></mask><g stroke-linecap="round"><g transform="translate(723.1349323497184 696.232527859235) rotate(0 -7.832679920570001 7.832679920570058)"><path d="M0 0 C-6.2 5.8, -11.5 11.63, -15.67 15.67 M0 0 C-4.56 4.79, -10.05 9.46, -15.67 15.67" stroke="#1e1e1e" stroke-width="2" fill="none"></path></g></g><mask></mask><g stroke-linecap="round"><g transform="translate(718.5074028227526 692.4497548742597) rotate(0 -7.666167651616604 7.666167651616547)"><path d="M0 0 C-3.96 4.03, -9.67 8.88, -15.33 15.33 M0 0 C-5.53 5.02, -10.43 10.29, -15.33 15.33" stroke="#2f9e44" stroke-width="2" fill="none"></path></g></g><mask></mask><g stroke-linecap="round"><g transform="translate(895.6045854593551 671.4838864476094) rotate(0 8.05892579532204 8.058925795322011)"><path d="M0 0 C5.71 6.54, 12.01 11.35, 16.12 16.12 M0 0 C3.74 4.24, 7.91 8.33, 16.12 16.12" stroke="#1e1e1e" stroke-width="2" fill="none"></path></g></g><mask></mask><g stroke-linecap="round"><g transform="translate(899.7313507662086 667.6510971783143) rotate(0 7.884013861178602 7.884013861178573)"><path d="M0 0 C5.17 4.49, 8.92 9.12, 15.77 15.77 M0 0 C4.25 4.62, 8.39 8.62, 15.77 15.77" stroke="#c2255c" stroke-width="2" fill="none"></path></g></g><mask></mask><g stroke-linecap="round"><g transform="translate(924.6202746740307 697.9641275434392) rotate(0 8.05892579532204 8.058925795322011)"><path d="M0 0 C4.51 4.28, 10.32 10.28, 16.12 16.12 M0 0 C4.78 4.9, 8.97 8.85, 16.12 16.12" stroke="#1e1e1e" stroke-width="2" fill="none"></path></g></g><mask></mask><g stroke-linecap="round"><g transform="translate(928.7470399808842 694.1313382741441) rotate(0 7.884013861178602 7.884013861178573)"><path d="M0 0 C5.75 5.74, 9.55 10.67, 15.77 15.77 M0 0 C4.54 4.45, 9.83 9.59, 15.77 15.77" stroke="#c2255c" stroke-width="2" fill="none"></path></g></g><mask></mask><g transform="translate(932.3383545966437 284.06986956339074) rotate(0 37.40800094604492 17.5)"><text x="37.40800094604492" y="0" font-family="Virgil, Segoe UI Emoji" font-size="28px" fill="#1e1e1e" text-anchor="middle" style="white-space: pre;" direction="ltr" dominant-baseline="text-before-edge">3078</text></g><g transform="translate(722.46237369296 510.91281972860065) rotate(0 37.22600173950195 17.5)"><text x="37.22600173950195" y="0" font-family="Virgil, Segoe UI Emoji" font-size="28px" fill="#1e1e1e" text-anchor="middle" style="white-space: pre;" direction="ltr" dominant-baseline="text-before-edge">3093</text></g><g stroke-linecap="round" transform="translate(594.2199937061666 154.53021178579274) rotate(0 414.91321664548775 297.9440648333616)"><path d="M0 0 C198.79 1.66, 399.11 1.75, 829.83 0 M0 0 C264.36 1.32, 528.2 0.91, 829.83 0 M829.83 0 C829.52 222.59, 829.78 444.7, 829.83 595.89 M829.83 0 C830.73 203.57, 830.78 407.49, 829.83 595.89 M829.83 595.89 C630.47 594.63, 431.71 594.92, 0 595.89 M829.83 595.89 C561.38 599.06, 293.13 598.69, 0 595.89 M0 595.89 C1.13 405.43, 1.31 215.15, 0 0 M0 595.89 C2.1 475.81, 2.05 355.48, 0 0" stroke="#1e1e1e" stroke-width="2" fill="none"></path></g><g transform="translate(795.9886770431306 91.48268061162912) rotate(0 211.01400756835938 22.5)"><text x="211.01400756835938" y="0" font-family="Virgil, Segoe UI Emoji" font-size="36px" fill="#1e1e1e" text-anchor="middle" style="white-space: pre;" direction="ltr" dominant-baseline="text-before-edge">Dynamic Execution Tree</text></g><g stroke-linecap="round"><g transform="translate(1896.548641622086 830.8683057679141) rotate(0 -943.274320811043 0)"><path d="M0 0 C-379.53 1.36, -759.76 1.55, -1886.55 0 M0 0 C-415.28 -2.59, -830.55 -2.65, -1886.55 0" stroke="#1e1e1e" stroke-width="2" fill="none"></path></g></g><mask></mask></svg>