<svg version="1.1" xmlns="http://www.w3.org/2000/svg" viewBox="0 0 1908.9246474679576 2149.1221531075025" width="3817.849294935915" height="4298.244306215005">
  <!-- svg-source:excalidraw -->
  
  <defs>
    <style class="style-fonts">
      @font-face {
        font-family: "Virgil";
        src: url("https://excalidraw.com/Virgil.woff2");
      }
      @font-face {
        font-family: "Cascadia";
        src: url("https://excalidraw.com/Cascadia.woff2");
      }
      @font-face {
        font-family: "Assistant";
        src: url("https://app.excalidraw.com//dist/excalidraw-assets/Assistant-Regular.woff2");
      }
    </style>
    
  </defs>
  <g stroke-linecap="round"><g transform="translate(1896.548641622086 632.0032238719094) rotate(0 -943.274320811043 0)"><path d="M0 0 C-745.02 -1.73, -1491.16 -1.51, -1886.55 0 M0 0 C-474.4 -3.52, -948.37 -4.06, -1886.55 0" stroke="#1e1e1e" stroke-width="2" fill="none"></path></g></g><mask></mask><g transform="translate(31.750785134772286 275.35694341287956) rotate(0 178.2899932861328 45)"><text x="178.2899932861328" y="0" font-family="Virgil, Segoe UI Emoji" font-size="36px" fill="#1e1e1e" text-anchor="middle" style="white-space: pre;" direction="ltr" dominant-baseline="text-before-edge">System under Test </text><text x="178.2899932861328" y="45" font-family="Virgil, Segoe UI Emoji" font-size="36px" fill="#1e1e1e" text-anchor="middle" style="white-space: pre;" direction="ltr" dominant-baseline="text-before-edge">(SuT)</text></g><g transform="translate(58.694483820627966 1745.4319061115646) rotate(0 153.88198852539062 45)"><text x="153.88198852539062" y="0" font-family="Virgil, Segoe UI Emoji" font-size="36px" fill="#1e1e1e" text-anchor="middle" style="white-space: pre;" direction="ltr" dominant-baseline="text-before-edge">Symbolic Explorer</text><text x="153.88198852539062" y="45" font-family="Virgil, Segoe UI Emoji" font-size="36px" fill="#1e1e1e" text-anchor="middle" style="white-space: pre;" direction="ltr" dominant-baseline="text-before-edge">(FastAPI Server)</text></g><g transform="translate(55.05399332103684 969.5820006750826) rotate(0 155.84400939941406 45)"><text x="155.84400939941406" y="0" font-family="Virgil, Segoe UI Emoji" font-size="36px" fill="#1e1e1e" text-anchor="middle" style="white-space: pre;" direction="ltr" dominant-baseline="text-before-edge">Symbolic Executor</text><text x="155.84400939941406" y="45" font-family="Virgil, Segoe UI Emoji" font-size="36px" fill="#1e1e1e" text-anchor="middle" style="white-space: pre;" direction="ltr" dominant-baseline="text-before-edge">(Javaagent)</text></g><g transform="translate(799.8860863366206 99.30992717927916) rotate(0 140.6160125732422 202.5)"><text x="0" y="0" font-family="Virgil, Segoe UI Emoji" font-size="36px" fill="#1e1e1e" text-anchor="start" style="white-space: pre;" direction="ltr" dominant-baseline="text-before-edge">...</text><text x="0" y="45" font-family="Virgil, Segoe UI Emoji" font-size="36px" fill="#1e1e1e" text-anchor="start" style="white-space: pre;" direction="ltr" dominant-baseline="text-before-edge">  12: ILOAD 1</text><text x="0" y="90" font-family="Virgil, Segoe UI Emoji" font-size="36px" fill="#1e1e1e" text-anchor="start" style="white-space: pre;" direction="ltr" dominant-baseline="text-before-edge">  13: IFNE 18</text><text x="0" y="135" font-family="Virgil, Segoe UI Emoji" font-size="36px" fill="#1e1e1e" text-anchor="start" style="white-space: pre;" direction="ltr" dominant-baseline="text-before-edge">  16: ICONST 0</text><text x="0" y="180" font-family="Virgil, Segoe UI Emoji" font-size="36px" fill="#1e1e1e" text-anchor="start" style="white-space: pre;" direction="ltr" dominant-baseline="text-before-edge">  17: IRETURN</text><text x="0" y="225" font-family="Virgil, Segoe UI Emoji" font-size="36px" fill="#1e1e1e" text-anchor="start" style="white-space: pre;" direction="ltr" dominant-baseline="text-before-edge">  18: ILOAD 1</text><text x="0" y="270" font-family="Virgil, Segoe UI Emoji" font-size="36px" fill="#1e1e1e" text-anchor="start" style="white-space: pre;" direction="ltr" dominant-baseline="text-before-edge">  19: ILOAD 2</text><text x="0" y="315" font-family="Virgil, Segoe UI Emoji" font-size="36px" fill="#1e1e1e" text-anchor="start" style="white-space: pre;" direction="ltr" dominant-baseline="text-before-edge">  20: IDIV</text><text x="0" y="360" font-family="Virgil, Segoe UI Emoji" font-size="36px" fill="#1e1e1e" text-anchor="start" style="white-space: pre;" direction="ltr" dominant-baseline="text-before-edge">...</text></g><g stroke-linecap="round" transform="translate(756.1103110505219 66.07832636838452) rotate(0 241.96759340432516 234.69818072694193)"><path d="M0 0 C137.37 1.36, 275.15 1.77, 483.94 0 M0 0 C149.25 0.7, 298.73 0.69, 483.94 0 M483.94 0 C484.04 144.55, 484.92 288.28, 483.94 469.4 M483.94 0 C486.19 144.41, 485.62 288.86, 483.94 469.4 M483.94 469.4 C386.52 468.48, 287.84 468.47, 0 469.4 M483.94 469.4 C366 469.79, 248.1 469.95, 0 469.4 M0 469.4 C0.39 360.26, 0.94 251.13, 0 0 M0 469.4 C-0.9 287.56, -0.78 106.4, 0 0" stroke="#1e1e1e" stroke-width="2" fill="none"></path></g><g transform="translate(920.1913400543133 10) rotate(0 80.63999938964844 22.5)"><text x="0" y="0" font-family="Virgil, Segoe UI Emoji" font-size="36px" fill="#1e1e1e" text-anchor="start" style="white-space: pre;" direction="ltr" dominant-baseline="text-before-edge">Bytecode</text></g><g stroke-linecap="round"><g transform="translate(727.7423033644291 75.64690200988593) rotate(0 0 10.641688535427313)"><path d="M0 0 C-0.23 6.11, 0.51 10.13, 0 21.28 M0 0 C-0.25 4.01, 0.03 8.69, 0 21.28" stroke="#c2255c" stroke-width="2" fill="none"></path></g></g><mask></mask><g stroke-linecap="round"><g transform="translate(727.1067679562808 109.71737070436757) rotate(0 0 10.641688535427313)"><path d="M0 0 C0.31 7.22, 0.79 16.52, 0 21.28 M0 0 C-0.31 8.46, -0.22 16.09, 0 21.28" stroke="#c2255c" stroke-width="2" fill="none"></path></g></g><mask></mask><g stroke-linecap="round"><g transform="translate(727.40595629578 140.21768033171298) rotate(0 0 80.0092225375877)"><path d="M0 0 C2 31.06, 0.37 63.81, 0 160.02 M0 0 C-0.5 56.19, -0.57 111.78, 0 160.02" stroke="#c2255c" stroke-width="2" fill="none"></path></g></g><mask></mask><g stroke-linecap="round" transform="translate(721.39508613202 290.61107181754016) rotate(0 6.250059543720283 6.250059543720283)"><path d="M6.51 0.22 C7.89 0.27, 10 1.39, 10.92 2.28 C11.84 3.17, 11.88 4.35, 12.02 5.57 C12.16 6.78, 12.51 8.39, 11.74 9.56 C10.97 10.73, 8.69 12.15, 7.39 12.58 C6.09 13.02, 5.04 12.77, 3.97 12.16 C2.89 11.56, 1.62 10.29, 0.95 8.96 C0.28 7.62, -0.33 5.44, -0.06 4.14 C0.2 2.84, 1.36 1.81, 2.54 1.17 C3.72 0.52, 6.24 0.39, 6.99 0.26 C7.75 0.14, 7.01 0.29, 7.04 0.39 M6.38 -0.34 C7.63 -0.14, 9.13 1.56, 10.27 2.45 C11.41 3.33, 13.07 3.7, 13.21 4.99 C13.35 6.28, 11.94 9.08, 11.09 10.2 C10.24 11.31, 9.34 11.38, 8.11 11.68 C6.89 11.97, 5.08 12.42, 3.74 11.96 C2.4 11.5, 0.68 10.24, 0.09 8.93 C-0.51 7.61, -0.12 5.35, 0.17 4.06 C0.46 2.76, 0.64 1.79, 1.84 1.15 C3.04 0.52, 6.48 0.34, 7.38 0.24 C8.29 0.14, 7.5 0.4, 7.25 0.55" stroke="none" stroke-width="0" fill="#c2255c"></path><path d="M5.38 -0.15 C6.59 -0.34, 7.89 0.38, 9.08 1.09 C10.28 1.79, 12.02 2.84, 12.56 4.07 C13.09 5.29, 12.83 7.1, 12.28 8.43 C11.74 9.76, 10.56 11.38, 9.3 12.06 C8.05 12.73, 6 12.82, 4.76 12.47 C3.52 12.12, 2.56 11, 1.85 9.95 C1.14 8.89, 0.63 7.46, 0.5 6.14 C0.36 4.82, 0.16 2.97, 1.05 2.01 C1.94 1.06, 4.99 0.74, 5.82 0.39 C6.65 0.05, 6.08 -0.14, 6.05 -0.05 M6.4 0.06 C7.73 -0.02, 9.68 0.29, 10.75 1.16 C11.81 2.04, 12.55 4.05, 12.81 5.31 C13.07 6.57, 13.13 7.59, 12.32 8.72 C11.51 9.84, 9.37 11.56, 7.95 12.07 C6.53 12.59, 5.07 12.31, 3.8 11.81 C2.52 11.31, 0.94 10.28, 0.3 9.05 C-0.33 7.83, -0.44 5.73, 0 4.45 C0.44 3.17, 1.99 2.14, 2.93 1.4 C3.88 0.65, 5.17 0.19, 5.68 -0.03 C6.18 -0.25, 5.89 -0.14, 5.96 0.08" stroke="#c2255c" stroke-width="2" fill="none"></path></g><g stroke-linecap="round"><g transform="translate(697.4337634539401 76.09071899124558) rotate(0 0 10.641688535427313)"><path d="M0 0 C0.23 6.77, 0.82 13.28, 0 21.28 M0 0 C-0.31 6.32, 0.07 12.72, 0 21.28" stroke="#2f9e44" stroke-width="2" fill="none"></path></g></g><mask></mask><g stroke-linecap="round"><g transform="translate(696.7982280457918 110.16118768572721) rotate(0 0 10.641688535427313)"><path d="M0 0 C0.82 9.46, -0.05 16.36, 0 21.28 M0 0 C0.08 7.23, -0.44 13.71, 0 21.28" stroke="#2f9e44" stroke-width="2" fill="none"></path></g></g><mask></mask><g stroke-linecap="round"><g transform="translate(697.097416385291 140.66149731307263) rotate(0 0 34.886612201527356)"><path d="M0 0 C0.41 24.13, 1.11 49.59, 0 69.77 M0 0 C-0.6 21.7, -0.26 44.16, 0 69.77" stroke="#2f9e44" stroke-width="2" fill="none"></path></g></g><mask></mask><g stroke-linecap="round" transform="translate(691.0865462215309 201.39242353390338) rotate(0 6.250059543720283 6.250059543720283)"><path d="M7.47 -0.13 C8.68 -0.06, 9.97 0.89, 10.81 2.01 C11.65 3.14, 12.52 5.17, 12.5 6.62 C12.48 8.08, 11.57 9.72, 10.68 10.74 C9.79 11.76, 8.52 12.56, 7.14 12.72 C5.75 12.88, 3.53 12.4, 2.36 11.7 C1.2 11.01, 0.52 9.79, 0.15 8.55 C-0.23 7.3, -0.46 5.55, 0.12 4.24 C0.69 2.92, 2.21 1.31, 3.6 0.65 C4.99 -0.01, 7.65 0.28, 8.47 0.29 C9.3 0.3, 8.73 0.56, 8.57 0.72 M5.23 0.36 C6.52 0.09, 8.61 0.69, 9.7 1.3 C10.8 1.91, 11.4 2.74, 11.79 4.01 C12.19 5.27, 12.58 7.56, 12.09 8.88 C11.59 10.21, 10.05 11.35, 8.83 11.95 C7.61 12.54, 6 12.82, 4.76 12.44 C3.51 12.07, 2.1 10.86, 1.33 9.7 C0.57 8.54, 0.13 6.66, 0.16 5.47 C0.2 4.29, 0.74 3.46, 1.55 2.58 C2.35 1.7, 4.47 0.54, 4.99 0.19 C5.52 -0.15, 4.65 0.34, 4.71 0.5" stroke="none" stroke-width="0" fill="#099268"></path><path d="M5.74 -0.35 C6.93 -0.64, 8.35 0.05, 9.41 0.78 C10.48 1.52, 11.78 2.71, 12.13 4.04 C12.49 5.37, 12.13 7.54, 11.55 8.77 C10.97 9.99, 9.73 10.86, 8.66 11.4 C7.59 11.95, 6.38 12.33, 5.15 12.02 C3.91 11.7, 2.06 10.46, 1.23 9.52 C0.4 8.58, 0.05 7.68, 0.15 6.36 C0.24 5.04, 0.8 2.57, 1.81 1.59 C2.81 0.6, 5.44 0.66, 6.18 0.46 C6.93 0.27, 6.36 0.41, 6.29 0.44 M6.32 -0.6 C7.64 -0.52, 10.39 0.65, 11.42 1.62 C12.45 2.59, 12.59 3.86, 12.53 5.21 C12.47 6.56, 11.82 8.62, 11.08 9.72 C10.33 10.83, 9.38 11.56, 8.08 11.84 C6.77 12.12, 4.42 12.02, 3.24 11.4 C2.07 10.77, 1.56 9.16, 1.04 8.11 C0.52 7.06, -0.12 6.21, 0.11 5.09 C0.35 3.96, 1.35 2.1, 2.45 1.34 C3.55 0.58, 5.91 0.73, 6.7 0.5 C7.49 0.27, 7.26 -0.12, 7.19 -0.06" stroke="#2f9e44" stroke-width="2" fill="none"></path></g><g stroke-linecap="round"><g transform="translate(697.888841487182 472.3434540171361) rotate(0 0 10.641688535427306)"><path d="M0 0 C0.79 5.9, -0.03 9.7, 0 21.28 M0 0 C-0.08 6.96, 0.3 13.13, 0 21.28" stroke="#2f9e44" stroke-width="2" fill="none"></path></g></g><mask></mask><g stroke-linecap="round"><g transform="translate(697.2533060790338 506.4139227116177) rotate(0 0 10.641688535427306)"><path d="M0 0 C-0.01 5.25, 0.17 11.55, 0 21.28 M0 0 C0.32 4.89, 0.22 9.7, 0 21.28" stroke="#2f9e44" stroke-width="2" fill="none"></path></g></g><mask></mask><g stroke-linecap="round"><g transform="translate(697.5524944185329 344.4858372043169) rotate(0 0 57.021941322168516)"><path d="M0 0 C0.08 41.89, -1.49 84.68, 0 114.04 M0 0 C1.22 42.76, 1.08 85.57, 0 114.04" stroke="#2f9e44" stroke-width="2" fill="none"></path></g></g><mask></mask><g stroke-linecap="round" transform="translate(691.5416242547728 339.7092246559064) rotate(0 6.250059543720283 6.250059543720283)"><path d="M7.47 0.31 C8.8 0.48, 10.51 1.36, 11.33 2.42 C12.16 3.49, 12.45 5.42, 12.42 6.72 C12.39 8.03, 11.98 9.39, 11.16 10.27 C10.35 11.14, 8.85 11.86, 7.51 11.99 C6.16 12.12, 4.35 11.61, 3.1 11.05 C1.86 10.48, 0.48 9.76, 0.05 8.62 C-0.39 7.48, -0.1 5.59, 0.52 4.21 C1.15 2.82, 2.54 1.01, 3.8 0.3 C5.06 -0.41, 7.32 -0.04, 8.07 -0.07 C8.82 -0.11, 8.29 -0.12, 8.3 0.09 M7.58 -0.51 C8.8 -0.43, 9.67 1.72, 10.47 2.75 C11.27 3.79, 12.32 4.53, 12.39 5.68 C12.46 6.83, 11.76 8.43, 10.89 9.66 C10.02 10.9, 8.41 12.77, 7.16 13.07 C5.91 13.37, 4.65 12.32, 3.41 11.46 C2.18 10.6, 0.33 9.03, -0.26 7.93 C-0.84 6.82, -0.53 6, -0.13 4.84 C0.28 3.69, 0.85 1.72, 2.15 0.99 C3.46 0.27, 6.84 0.57, 7.69 0.5 C8.54 0.43, 7.39 0.57, 7.25 0.58" stroke="none" stroke-width="0" fill="#099268"></path><path d="M6.07 0.24 C7.25 0.1, 9.01 0.68, 10.02 1.52 C11.04 2.37, 11.84 4.03, 12.16 5.32 C12.49 6.61, 12.55 8.1, 11.97 9.27 C11.39 10.43, 9.9 11.85, 8.68 12.31 C7.45 12.78, 5.88 12.48, 4.64 12.07 C3.4 11.67, 1.93 11.02, 1.24 9.9 C0.55 8.77, 0.39 6.65, 0.51 5.32 C0.63 3.99, 1.03 2.83, 1.95 1.92 C2.87 1.01, 5.23 0.14, 6.04 -0.15 C6.85 -0.44, 6.75 0.02, 6.79 0.19 M6.66 -0.4 C7.94 -0.58, 8.86 -0.09, 9.89 0.84 C10.93 1.77, 12.59 3.71, 12.88 5.17 C13.17 6.62, 12.37 8.32, 11.62 9.59 C10.88 10.85, 9.55 12.32, 8.39 12.77 C7.23 13.22, 5.88 12.9, 4.68 12.29 C3.48 11.68, 1.89 10.26, 1.19 9.1 C0.49 7.95, 0.28 6.61, 0.51 5.38 C0.74 4.15, 1.55 2.6, 2.58 1.74 C3.6 0.87, 6.18 0.5, 6.67 0.18 C7.16 -0.14, 5.5 -0.32, 5.5 -0.19" stroke="#2f9e44" stroke-width="2" fill="none"></path></g><g transform="translate(584.8190925535101 835.3344714370598) rotate(0 176.0399932861328 67.5)"><text x="0" y="0" font-family="Virgil, Segoe UI Emoji" font-size="36px" fill="#1e1e1e" text-anchor="start" style="white-space: pre;" direction="ltr" dominant-baseline="text-before-edge">IID: 3078</text><text x="0" y="45" font-family="Virgil, Segoe UI Emoji" font-size="36px" fill="#1e1e1e" text-anchor="start" style="white-space: pre;" direction="ltr" dominant-baseline="text-before-edge">Branched: False</text><text x="0" y="90" font-family="Virgil, Segoe UI Emoji" font-size="36px" fill="#1e1e1e" text-anchor="start" style="white-space: pre;" direction="ltr" dominant-baseline="text-before-edge">Constraint: I1 != 0 </text></g><g transform="translate(677.1614708688321 760.7243129833644) rotate(0 59.16600036621094 22.5)"><text x="0" y="0" font-family="Virgil, Segoe UI Emoji" font-size="36px" fill="#1e1e1e" text-anchor="start" style="white-space: pre;" direction="ltr" dominant-baseline="text-before-edge">Branch</text></g><g transform="translate(799.2872421511281 777.6154385649718) rotate(0 9.631999969482422 17.5)"><text x="0" y="0" font-family="Virgil, Segoe UI Emoji" font-size="28px" fill="#1e1e1e" text-anchor="start" style="white-space: pre;" direction="ltr" dominant-baseline="text-before-edge">0</text></g><g stroke-linecap="round"><g transform="translate(936.8083316474817 820.6882743290439) rotate(0 -188.5289587867369 0)"><path d="M0 0 C-82.77 1.04, -165.26 0.97, -377.06 0 M0 0 C-99.27 -2.53, -197.42 -1.98, -377.06 0" stroke="#1e1e1e" stroke-width="2" fill="none"></path></g></g><mask></mask><g stroke-linecap="round" transform="translate(557.7271257275779 746.9378939999004) rotate(0 191.4423481401521 119.63200054888154)"><path d="M0 0 C109.44 -0.73, 215.49 -1.02, 382.88 0 M0 0 C141.94 0.62, 284.21 0.73, 382.88 0 M382.88 0 C381.03 70.05, 380.27 135.61, 382.88 239.26 M382.88 0 C384.29 79.18, 383.86 157.36, 382.88 239.26 M382.88 239.26 C294.19 238.98, 208.1 238.48, 0 239.26 M382.88 239.26 C240.69 240.28, 98.03 239.86, 0 239.26 M0 239.26 C-0.26 145.19, 1.26 48.04, 0 0 M0 239.26 C0.23 171.94, -0.89 106.39, 0 0" stroke="#1e1e1e" stroke-width="2" fill="none"></path></g><g transform="translate(1101.4016425828331 836.0426378728915) rotate(0 134.89199829101562 67.5)"><text x="0" y="0" font-family="Virgil, Segoe UI Emoji" font-size="36px" fill="#1e1e1e" text-anchor="start" style="white-space: pre;" direction="ltr" dominant-baseline="text-before-edge">IID: 3093</text><text x="0" y="45" font-family="Virgil, Segoe UI Emoji" font-size="36px" fill="#1e1e1e" text-anchor="start" style="white-space: pre;" direction="ltr" dominant-baseline="text-before-edge">Branched: True</text><text x="0" y="90" font-family="Virgil, Segoe UI Emoji" font-size="36px" fill="#1e1e1e" text-anchor="start" style="white-space: pre;" direction="ltr" dominant-baseline="text-before-edge">Constraint: ... </text></g><g transform="translate(1193.7440208981552 761.432479419196) rotate(0 59.16600036621094 22.5)"><text x="0" y="0" font-family="Virgil, Segoe UI Emoji" font-size="36px" fill="#1e1e1e" text-anchor="start" style="white-space: pre;" direction="ltr" dominant-baseline="text-before-edge">Branch</text></g><g transform="translate(1317.8697921804512 778.3236050008035) rotate(0 3.7939999103546143 17.5)"><text x="0" y="0" font-family="Virgil, Segoe UI Emoji" font-size="28px" fill="#1e1e1e" text-anchor="start" style="white-space: pre;" direction="ltr" dominant-baseline="text-before-edge">1</text></g><g stroke-linecap="round"><g transform="translate(1453.3908816768048 821.3964407648756) rotate(0 -188.5289587867369 0)"><path d="M0 0 C-114.5 -1.93, -227.69 0.08, -377.06 0 M0 0 C-151.32 1.82, -301.1 2.15, -377.06 0" stroke="#1e1e1e" stroke-width="2" fill="none"></path></g></g><mask></mask><g stroke-linecap="round" transform="translate(1074.309675756901 747.6460604357322) rotate(0 191.4423481401521 119.63200054888154)"><path d="M0 0 C96.84 2.76, 195.38 2.66, 382.88 0 M0 0 C150.18 1.03, 299.94 0.68, 382.88 0 M382.88 0 C382.01 67.51, 382.64 131.22, 382.88 239.26 M382.88 0 C383.79 77.05, 384.82 153.78, 382.88 239.26 M382.88 239.26 C253.98 237.29, 128.42 237.69, 0 239.26 M382.88 239.26 C297.3 239.93, 210.96 239.02, 0 239.26 M0 239.26 C-0.56 162.89, -0.64 85.4, 0 0 M0 239.26 C-1.18 189.11, -2.18 140.57, 0 0" stroke="#1e1e1e" stroke-width="2" fill="none"></path></g><g stroke-linecap="round"><g transform="translate(439.8402291404172 857.3865232153966) rotate(89.99999999999994 0 10.641688535427306)"><path d="M0 0 C0.25 6.08, 0.66 12.48, 0 21.28 M0 0 C-0.33 6.77, 0.55 12.31, 0 21.28" stroke="#2f9e44" stroke-width="2" fill="none"></path></g></g><mask></mask><g stroke-linecap="round"><g transform="translate(405.7717107302491 856.7490375229349) rotate(89.99999999999994 0 10.641688535427306)"><path d="M0 0 C0.69 5.72, -0.01 12.61, 0 21.28 M0 0 C0.39 6.21, -0.16 13.09, 0 21.28" stroke="#2f9e44" stroke-width="2" fill="none"></path></g></g><mask></mask><g stroke-linecap="round"><g transform="translate(461.94595232064046 868.03628027027) rotate(0 31.258370857897688 0)"><path d="M0 0 C17.16 2.11, 33.19 1.95, 62.52 0 M0 0 C16.12 -0.39, 31.93 0.09, 62.52 0" stroke="#2f9e44" stroke-width="2" fill="none"></path></g><g transform="translate(461.94595232064046 868.03628027027) rotate(0 31.258370857897688 0)"><path d="M60.75 1.02 L49.27 7.94 L49.81 -4.76 L60.66 0.91" stroke="none" stroke-width="0" fill="#2f9e44" fill-rule="evenodd"></path><path d="M62.52 0 C60.07 2.84, 56.7 4.34, 48.91 6.32 M62.52 0 C58.74 1.08, 54.76 3.09, 48.91 6.32 M48.91 6.32 C49.18 3.68, 48.26 0.41, 48.93 -6.36 M48.91 6.32 C49.49 1.78, 49.11 -2.43, 48.93 -6.36 M48.93 -6.36 C51.55 -3.81, 56.04 -3.86, 62.52 0 M48.93 -6.36 C54.58 -3.79, 59.04 -1.77, 62.52 0 M62.52 0 C62.52 0, 62.52 0, 62.52 0 M62.52 0 C62.52 0, 62.52 0, 62.52 0" stroke="#2f9e44" stroke-width="2" fill="none"></path></g></g><mask></mask><g stroke-linecap="round"><g transform="translate(975.9228756454578 867.8677108863602) rotate(0 31.25837085789766 0)"><path d="M0 0 C16.6 0.86, 37.5 0.4, 62.52 0 M0 0 C19.24 0.93, 40.11 1.04, 62.52 0" stroke="#2f9e44" stroke-width="2" fill="none"></path></g><g transform="translate(975.9228756454578 867.8677108863602) rotate(0 31.25837085789766 0)"><path d="M62.15 0.93 L47.76 5 L48.21 -5.38 L60.88 1.4" stroke="none" stroke-width="0" fill="#2f9e44" fill-rule="evenodd"></path><path d="M62.52 0 C57.28 2.91, 55.29 4.55, 49.13 6.77 M62.52 0 C57.78 2.8, 54.22 5.05, 49.13 6.77 M49.13 6.77 C50.24 1.99, 48.68 -1.43, 48.73 -5.9 M49.13 6.77 C49.7 3.14, 49.66 -0.65, 48.73 -5.9 M48.73 -5.9 C52.64 -4.33, 58.61 -0.2, 62.52 0 M48.73 -5.9 C54.08 -4.16, 59.22 -1.21, 62.52 0 M62.52 0 C62.52 0, 62.52 0, 62.52 0 M62.52 0 C62.52 0, 62.52 0, 62.52 0" stroke="#2f9e44" stroke-width="2" fill="none"></path></g></g><mask></mask><g stroke-linecap="round"><g transform="translate(1535.6695388774046 860.4123523954879) rotate(89.99999999999994 0 10.641688535427306)"><path d="M0 0 C-0.14 7.77, -0.07 16.87, 0 21.28 M0 0 C-0.18 5.59, -0.57 11.66, 0 21.28" stroke="#2f9e44" stroke-width="2" fill="none"></path></g></g><mask></mask><g stroke-linecap="round"><g transform="translate(1501.6010204672366 859.7748667030262) rotate(89.99999999999994 0 10.641688535427306)"><path d="M0 0 C-0.11 5.02, -0.39 8.55, 0 21.28 M0 0 C-0.51 4.82, 0.1 8.68, 0 21.28" stroke="#2f9e44" stroke-width="2" fill="none"></path></g></g><mask></mask><g stroke-linecap="round"><g transform="translate(1557.775262057628 871.0621094503613) rotate(0 31.258370857897717 0)"><path d="M0 0 C15.01 -1.76, 29.6 -0.62, 62.52 0 M0 0 C18.91 -0.65, 37.68 -1.17, 62.52 0" stroke="#2f9e44" stroke-width="2" fill="none"></path></g><g transform="translate(1557.775262057628 871.0621094503613) rotate(0 31.258370857897717 0)"><path d="M64.38 0.31 L47.1 5.3 L50.31 -6.31 L62.2 1.63" stroke="none" stroke-width="0" fill="#2f9e44" fill-rule="evenodd"></path><path d="M62.52 0 C58.48 0.39, 54.13 2.73, 48.73 5.92 M62.52 0 C58.52 1.86, 54.47 3.23, 48.73 5.92 M48.73 5.92 C50.08 0.05, 48.66 -4.42, 49.12 -6.75 M48.73 5.92 C49.22 2.47, 48.94 -2.06, 49.12 -6.75 M49.12 -6.75 C50.92 -3.79, 53.86 -4.44, 62.52 0 M49.12 -6.75 C53.6 -4.69, 57.48 -2.37, 62.52 0 M62.52 0 C62.52 0, 62.52 0, 62.52 0 M62.52 0 C62.52 0, 62.52 0, 62.52 0" stroke="#2f9e44" stroke-width="2" fill="none"></path></g></g><mask></mask><g transform="translate(584.7970092999678 1146.051172054516) rotate(0 176.0399932861328 67.49999999999994)"><text x="0" y="0" font-family="Virgil, Segoe UI Emoji" font-size="36px" fill="#1e1e1e" text-anchor="start" style="white-space: pre;" direction="ltr" dominant-baseline="text-before-edge">IID: 3078</text><text x="0" y="45" font-family="Virgil, Segoe UI Emoji" font-size="36px" fill="#1e1e1e" text-anchor="start" style="white-space: pre;" direction="ltr" dominant-baseline="text-before-edge">Branched: False</text><text x="0" y="90" font-family="Virgil, Segoe UI Emoji" font-size="36px" fill="#1e1e1e" text-anchor="start" style="white-space: pre;" direction="ltr" dominant-baseline="text-before-edge">Constraint: I1 != 0 </text></g><g transform="translate(677.1393876152898 1071.4410136008205) rotate(0 59.16600036621094 22.5)"><text x="0" y="0" font-family="Virgil, Segoe UI Emoji" font-size="36px" fill="#1e1e1e" text-anchor="start" style="white-space: pre;" direction="ltr" dominant-baseline="text-before-edge">Branch</text></g><g transform="translate(799.2651588975857 1088.332139182428) rotate(0 9.631999969482422 17.5)"><text x="0" y="0" font-family="Virgil, Segoe UI Emoji" font-size="28px" fill="#1e1e1e" text-anchor="start" style="white-space: pre;" direction="ltr" dominant-baseline="text-before-edge">0</text></g><g stroke-linecap="round"><g transform="translate(936.7862483939394 1131.4049749465003) rotate(0 -188.5289587867369 0)"><path d="M0 0 C-146.66 0.79, -291.83 -0.07, -377.06 0 M0 0 C-94.02 0.43, -187.7 1, -377.06 0" stroke="#1e1e1e" stroke-width="2" fill="none"></path></g></g><mask></mask><g stroke-linecap="round" transform="translate(557.7050424740356 1057.6545946173565) rotate(0 191.4423481401521 119.63200054888154)"><path d="M0 0 C131.69 -0.64, 263.41 1.02, 382.88 0 M0 0 C129.97 1.95, 260.38 1.95, 382.88 0 M382.88 0 C382.8 84.22, 380.84 168.14, 382.88 239.26 M382.88 0 C383.45 64.36, 383.81 126.8, 382.88 239.26 M382.88 239.26 C254.94 240.56, 126.96 240.57, 0 239.26 M382.88 239.26 C297.69 240.82, 213.45 240.93, 0 239.26 M0 239.26 C2.33 171.31, 0.38 103.84, 0 0 M0 239.26 C0.36 170.09, 1.33 101.87, 0 0" stroke="#1e1e1e" stroke-width="2" fill="none"></path></g><g transform="translate(1101.379559329291 1146.7593384903475) rotate(0 102.34800720214844 67.49999999999994)"><text x="0" y="0" font-family="Virgil, Segoe UI Emoji" font-size="36px" fill="#1e1e1e" text-anchor="start" style="white-space: pre;" direction="ltr" dominant-baseline="text-before-edge">Symbolic: I1</text><text x="0" y="45" font-family="Virgil, Segoe UI Emoji" font-size="36px" fill="#1e1e1e" text-anchor="start" style="white-space: pre;" direction="ltr" dominant-baseline="text-before-edge">Concrete: 0</text><text x="0" y="90" font-family="Virgil, Segoe UI Emoji" font-size="36px" fill="#1e1e1e" text-anchor="start" style="white-space: pre;" direction="ltr" dominant-baseline="text-before-edge">Bounds: ...</text></g><g transform="translate(1218.714764708941 1072.149180036652) rotate(0 41.38199996948242 22.5)"><text x="0" y="0" font-family="Virgil, Segoe UI Emoji" font-size="36px" fill="#1e1e1e" text-anchor="start" style="white-space: pre;" direction="ltr" dominant-baseline="text-before-edge">Leaf</text></g><g transform="translate(1301.185824217357 1089.0403056182595) rotate(0 9.631999969482422 17.5)"><text x="0" y="0" font-family="Virgil, Segoe UI Emoji" font-size="28px" fill="#1e1e1e" text-anchor="start" style="white-space: pre;" direction="ltr" dominant-baseline="text-before-edge">0</text></g><g stroke-linecap="round"><g transform="translate(1453.3687984232624 1132.1131413823318) rotate(0 -188.5289587867369 0)"><path d="M0 0 C-87.09 -3.02, -174.33 -1.24, -377.06 0 M0 0 C-91.61 1.12, -183.33 1.25, -377.06 0" stroke="#1e1e1e" stroke-width="2" fill="none"></path></g></g><mask></mask><g stroke-linecap="round" transform="translate(1074.2875925033586 1058.3627610531885) rotate(0 191.4423481401521 119.63200054888154)"><path d="M0 0 C83.18 2.77, 165.43 3.05, 382.88 0 M0 0 C138.73 1.03, 278.51 1.18, 382.88 0 M382.88 0 C382.67 69.88, 383.76 138.94, 382.88 239.26 M382.88 0 C385.03 63.87, 384.2 129.72, 382.88 239.26 M382.88 239.26 C290.53 240.06, 197.88 240.43, 0 239.26 M382.88 239.26 C250.2 237.62, 116.04 237.36, 0 239.26 M0 239.26 C0.98 187.64, 2.7 138.45, 0 0 M0 239.26 C1.32 189.89, 1.62 139.82, 0 0" stroke="#1e1e1e" stroke-width="2" fill="none"></path></g><g stroke-linecap="round"><g transform="translate(439.81814588687485 1168.1032238328526) rotate(89.99999999999994 0 10.641688535427306)"><path d="M0 0 C-0.56 5.17, 0.65 8.53, 0 21.28 M0 0 C0.09 5.2, -0.13 10.82, 0 21.28" stroke="#c2255c" stroke-width="2" fill="none"></path></g></g><mask></mask><g stroke-linecap="round"><g transform="translate(405.7496274767068 1167.4657381403913) rotate(89.99999999999994 0 10.641688535427306)"><path d="M0 0 C0.57 7.27, -0.6 14.35, 0 21.28 M0 0 C-0.02 6.01, 0.2 10.88, 0 21.28" stroke="#c2255c" stroke-width="2" fill="none"></path></g></g><mask></mask><g stroke-linecap="round"><g transform="translate(461.92386906709817 1178.7529808877262) rotate(0 31.258370857897688 0)"><path d="M0 0 C22.51 -1.26, 46.51 0.82, 62.52 0 M0 0 C18.58 -1.37, 36.84 -0.71, 62.52 0" stroke="#c2255c" stroke-width="2" fill="none"></path></g><g transform="translate(461.92386906709817 1178.7529808877262) rotate(0 31.258370857897688 0)"><path d="M61.59 0.57 L49.45 4.08 L48.82 -8.17 L63.48 0.68" stroke="none" stroke-width="0" fill="#c2255c" fill-rule="evenodd"></path><path d="M62.52 0 C56.55 1.15, 51.67 4.96, 48.76 5.97 M62.52 0 C58.74 1.13, 54.72 3.36, 48.76 5.97 M48.76 5.97 C48.1 2.91, 48.02 -2.37, 49.1 -6.7 M48.76 5.97 C49.23 1, 49 -4.14, 49.1 -6.7 M49.1 -6.7 C52.37 -3.18, 57.46 -3.31, 62.52 0 M49.1 -6.7 C52.51 -5.16, 55.13 -2.76, 62.52 0 M62.52 0 C62.52 0, 62.52 0, 62.52 0 M62.52 0 C62.52 0, 62.52 0, 62.52 0" stroke="#c2255c" stroke-width="2" fill="none"></path></g></g><mask></mask><g stroke-linecap="round"><g transform="translate(975.9007923919155 1178.5844115038162) rotate(0 31.258370857897717 0)"><path d="M0 0 C16.42 1.1, 34.02 0.24, 62.52 0 M0 0 C23.33 0.3, 46.18 0.29, 62.52 0" stroke="#c2255c" stroke-width="2" fill="none"></path></g><g transform="translate(975.9007923919155 1178.5844115038162) rotate(0 31.258370857897717 0)"><path d="M63.21 -1.9 L48.71 5.03 L49.82 -5.51 L63.07 -0.1" stroke="none" stroke-width="0" fill="#c2255c" fill-rule="evenodd"></path><path d="M62.52 0 C58.28 2.17, 54.97 3.3, 48.99 6.49 M62.52 0 C57.81 2.04, 52.72 4.42, 48.99 6.49 M48.99 6.49 C48.03 1.44, 49.98 -3.79, 48.85 -6.19 M48.99 6.49 C48.82 2.76, 48.98 0.3, 48.85 -6.19 M48.85 -6.19 C53.17 -5.07, 57.06 -3.51, 62.52 0 M48.85 -6.19 C51.62 -4.13, 55.46 -3.98, 62.52 0 M62.52 0 C62.52 0, 62.52 0, 62.52 0 M62.52 0 C62.52 0, 62.52 0, 62.52 0" stroke="#c2255c" stroke-width="2" fill="none"></path></g></g><mask></mask><g stroke-linecap="round"><g transform="translate(1664.2882619812603 743.6621513793302) rotate(0 36.33516931897066 125.6731584910458)"><path d="M0 0 C23.81 0.29, 46.85 0.36, 72.67 0 M0 0 C22.66 0.32, 43.89 0.25, 72.67 0 M72.67 0 C75.5 65.37, 76.05 127.16, 72.67 251.35 M72.67 0 C71.74 51.6, 70.45 104.18, 72.67 251.35 M72.67 251.35 C46.95 249.77, 21.96 249.48, 0.86 251.35 M72.67 251.35 C57.53 251.39, 42.47 249.92, 0.86 251.35" stroke="#1e1e1e" stroke-width="2" fill="none"></path></g></g><mask></mask><g transform="translate(1756.8713475175675 850.6502382789287) rotate(0 57.93199920654297 17.5)"><text x="0" y="0" font-family="Virgil, Segoe UI Emoji" font-size="28px" fill="#1e1e1e" text-anchor="start" style="white-space: pre;" direction="ltr" dominant-baseline="text-before-edge">Trace 0</text></g><g stroke-linecap="round"><g transform="translate(1664.3704847273405 1053.9297471537388) rotate(0 36.33516931897066 125.67315849104574)"><path d="M0 0 C25.91 0.82, 56.45 0.51, 72.67 0 M0 0 C28.71 0.9, 57.67 -0.44, 72.67 0 M72.67 0 C73.88 53.63, 74.08 107.02, 72.67 251.35 M72.67 0 C72.52 68.61, 73.1 136.44, 72.67 251.35 M72.67 251.35 C52.75 250.17, 31.66 249.52, 0.86 251.35 M72.67 251.35 C56.13 252.11, 40.07 250.65, 0.86 251.35" stroke="#1e1e1e" stroke-width="2" fill="none"></path></g></g><mask></mask><g transform="translate(1756.9535702636474 1160.9178340533374) rotate(0 52.093997955322266 17.5)"><text x="0" y="0" font-family="Virgil, Segoe UI Emoji" font-size="28px" fill="#1e1e1e" text-anchor="start" style="white-space: pre;" direction="ltr" dominant-baseline="text-before-edge">Trace 1</text></g><g stroke-linecap="round"><g transform="translate(1898.9246474679576 1398.7038116549868) rotate(0 -943.274320811043 0)"><path d="M0 0 C-609.97 7.28, -1220.49 6.27, -1886.55 0 M0 0 C-459.53 4.68, -918.37 4.7, -1886.55 0" stroke="#1e1e1e" stroke-width="2" fill="none"></path></g></g><mask></mask><g stroke-linecap="round" transform="translate(1008.1647039714446 1696.3424089670186) rotate(0 40.40127412654152 40.40127412654158)"><path d="M41.93 1 C48.72 0.53, 57.97 2.6, 63.95 6.77 C69.92 10.95, 75.14 19.21, 77.77 26.06 C80.4 32.91, 80.99 40.79, 79.73 47.85 C78.48 54.91, 75.39 63.28, 70.24 68.42 C65.09 73.56, 55.86 76.86, 48.83 78.71 C41.81 80.56, 34.82 81.69, 28.06 79.53 C21.31 77.38, 12.92 71.79, 8.31 65.79 C3.7 59.79, 1.02 50.88, 0.4 43.52 C-0.21 36.17, 1.24 28.08, 4.62 21.68 C8.01 15.27, 13.93 8.78, 20.74 5.09 C27.54 1.41, 41.11 0.05, 45.46 -0.43 C49.81 -0.92, 47.13 1.5, 46.82 2.18 M51.85 1.34 C58.38 3.11, 65.82 9.94, 70.65 15.5 C75.48 21.06, 79.72 27.49, 80.83 34.72 C81.94 41.94, 80.52 52.01, 77.3 58.85 C74.08 65.68, 67.77 72.23, 61.5 75.71 C55.23 79.18, 47.09 79.84, 39.69 79.67 C32.28 79.5, 23.14 78.77, 17.07 74.66 C10.99 70.55, 6.13 61.95, 3.25 55.03 C0.36 48.12, -1.25 40.34, -0.24 33.17 C0.77 26, 4.08 17.2, 9.31 12.03 C14.54 6.86, 24.06 3.67, 31.17 2.15 C38.27 0.64, 48.1 2.86, 51.92 2.94 C55.75 3.02, 54.36 1.9, 54.11 2.63" stroke="#1e1e1e" stroke-width="2" fill="none"></path></g><g transform="translate(1029.265261935492 1709.638503551152) rotate(0 13.086000442504883 22.5)"><text x="13.086000442504883" y="0" font-family="Virgil, Segoe UI Emoji" font-size="36px" fill="#1e1e1e" text-anchor="middle" style="white-space: pre;" direction="ltr" dominant-baseline="text-before-edge">B</text></g><g transform="translate(1055.56134689692 1730.0766347322387) rotate(0 9.631999969482422 17.5)"><text x="9.631999969482422" y="0" font-family="Virgil, Segoe UI Emoji" font-size="28px" fill="#1e1e1e" text-anchor="middle" style="white-space: pre;" direction="ltr" dominant-baseline="text-before-edge">0</text></g><g stroke-linecap="round" transform="translate(783.976265328155 1938.7906182530578) rotate(0 40.40127412654155 40.40127412654158)"><path d="M44.34 0.57 C51.14 0.32, 58.81 3.3, 64.61 7.65 C70.42 12, 76.61 19.77, 79.18 26.68 C81.75 33.6, 81.7 42.12, 80.02 49.16 C78.34 56.2, 74.16 63.89, 69.08 68.94 C64.01 73.99, 56.76 77.85, 49.57 79.45 C42.38 81.05, 33.03 81.04, 25.94 78.54 C18.85 76.04, 11.21 70.46, 7.03 64.45 C2.86 58.45, 1.05 49.82, 0.89 42.53 C0.72 35.23, 2.54 27.08, 6.04 20.68 C9.54 14.27, 14.97 7.5, 21.89 4.12 C28.8 0.75, 42.96 0.69, 47.51 0.41 C52.07 0.14, 49.6 1.85, 49.23 2.48 M32.66 0.95 C39.01 -0.85, 48.06 -1.08, 54.78 1.85 C61.5 4.77, 68.52 12.16, 72.99 18.49 C77.46 24.83, 81.49 32.63, 81.62 39.85 C81.74 47.08, 77.65 55.79, 73.74 61.84 C69.83 67.89, 64.42 73.1, 58.17 76.17 C51.91 79.24, 43.2 81.05, 36.21 80.28 C29.22 79.51, 22.14 76.19, 16.23 71.54 C10.33 66.89, 3.36 59.14, 0.77 52.38 C-1.82 45.62, -1.55 38.19, 0.69 31 C2.93 23.81, 8.63 14.42, 14.21 9.24 C19.8 4.06, 30.87 1.33, 34.19 -0.1 C37.5 -1.53, 33.91 -0.33, 34.1 0.67" stroke="#1e1e1e" stroke-width="2" fill="none"></path></g><g transform="translate(805.0768232922024 1952.0867128371915) rotate(0 13.086000442504883 22.5)"><text x="13.086000442504883" y="0" font-family="Virgil, Segoe UI Emoji" font-size="36px" fill="#1e1e1e" text-anchor="middle" style="white-space: pre;" direction="ltr" dominant-baseline="text-before-edge">B</text></g><g transform="translate(837.2109083127582 1972.5248440182781) rotate(0 3.7939999103546143 17.5)"><text x="3.7939999103546143" y="0" font-family="Virgil, Segoe UI Emoji" font-size="28px" fill="#1e1e1e" text-anchor="middle" style="white-space: pre;" direction="ltr" dominant-baseline="text-before-edge">1</text></g><g stroke-linecap="round" transform="translate(1233.496824450517 1937.2384881040246) rotate(0 40.40127412654152 40.40127412654158)"><path d="M57.33 4.45 C64.06 6.82, 71.27 12.84, 75.32 18.74 C79.37 24.64, 81.79 32.54, 81.65 39.85 C81.51 47.15, 78.66 56.35, 74.48 62.56 C70.29 68.77, 63.34 74.16, 56.54 77.11 C49.74 80.06, 40.74 81.17, 33.66 80.26 C26.58 79.34, 19.47 76.52, 14.08 71.62 C8.69 66.73, 3.47 58.21, 1.35 50.9 C-0.78 43.59, -0.8 34.78, 1.34 27.75 C3.47 20.71, 8.5 13.36, 14.16 8.72 C19.83 4.07, 26.86 0.02, 35.32 -0.15 C43.79 -0.32, 59.22 5.38, 64.96 7.72 C70.71 10.06, 70.15 13.4, 69.79 13.87 M52.69 2.5 C59.59 4.27, 66.69 10.61, 71.33 16.16 C75.97 21.7, 79.82 28.97, 80.53 35.79 C81.25 42.62, 79.09 50.39, 75.64 57.12 C72.2 63.85, 65.94 72.14, 59.85 76.16 C53.77 80.17, 45.94 81.52, 39.13 81.2 C32.31 80.87, 24.9 78.56, 18.96 74.2 C13.02 69.84, 6.54 61.66, 3.47 55.04 C0.4 48.42, -0.5 41.47, 0.53 34.49 C1.55 27.51, 4.89 18.6, 9.62 13.15 C14.35 7.71, 21.92 3.5, 28.9 1.84 C35.89 0.18, 47.53 2.98, 51.52 3.21 C55.5 3.44, 52.85 2.71, 52.82 3.21" stroke="#1e1e1e" stroke-width="2" fill="none"></path></g><g transform="translate(1256.9013832690564 1950.5345826881583) rotate(0 10.781999588012695 22.5)"><text x="10.781999588012695" y="0" font-family="Virgil, Segoe UI Emoji" font-size="36px" fill="#1e1e1e" text-anchor="middle" style="white-space: pre;" direction="ltr" dominant-baseline="text-before-edge">L</text></g><g transform="translate(1280.8934673759923 1970.972713869245) rotate(0 9.631999969482422 17.5)"><text x="9.631999969482422" y="0" font-family="Virgil, Segoe UI Emoji" font-size="28px" fill="#1e1e1e" text-anchor="middle" style="white-space: pre;" direction="ltr" dominant-baseline="text-before-edge">0</text></g><g stroke-linecap="round"><g transform="translate(1047.8770144303976 1608.5197695617314) rotate(179.9999999999999 0 10.641688535427306)"><path d="M0 0 C-0.6 5.82, 0.94 9.91, 0 21.28 M0 0 C0.54 5.09, 0.47 10.35, 0 21.28" stroke="#1e1e1e" stroke-width="2" fill="none"></path></g></g><mask></mask><g stroke-linecap="round"><g transform="translate(1048.9191524473167 1574.3862837178938) rotate(179.9999999999999 0 10.641688535427306)"><path d="M0 0 C0.92 6.7, -0.7 13.69, 0 21.28 M0 0 C0.51 8.64, 0.01 16.55, 0 21.28" stroke="#1e1e1e" stroke-width="2" fill="none"></path></g></g><mask></mask><g stroke-linecap="round"><g transform="translate(1055.3272801532855 1607.8513144269832) rotate(179.9999999999999 0 10.641688535427306)"><path d="M0 0 C0.53 6.99, -0.47 14.87, 0 21.28 M0 0 C-0.31 7.28, 0.09 14.85, 0 21.28" stroke="#c2255c" stroke-width="2" fill="none"></path></g></g><mask></mask><g stroke-linecap="round"><g transform="translate(1056.3694181702047 1573.7178285831455) rotate(179.9999999999999 0 10.641688535427306)"><path d="M0 0 C-0.52 7.98, 0.47 16, 0 21.28 M0 0 C0.09 8.37, -0.38 15.86, 0 21.28" stroke="#c2255c" stroke-width="2" fill="none"></path></g></g><mask></mask><g stroke-linecap="round"><g transform="translate(1040.2308311673607 1607.851314426983) rotate(179.9999999999999 0 10.641688535427306)"><path d="M0 0 C0.19 5.99, 0.87 13.15, 0 21.28 M0 0 C-0.3 8.43, 0.1 17.09, 0 21.28" stroke="#2f9e44" stroke-width="2" fill="none"></path></g></g><mask></mask><g stroke-linecap="round"><g transform="translate(1041.2729691842799 1573.7178285831453) rotate(179.9999999999999 0 10.641688535427306)"><path d="M0 0 C0.9 4.12, 0.97 8.43, 0 21.28 M0 0 C0.16 6.19, -0.17 11.42, 0 21.28" stroke="#2f9e44" stroke-width="2" fill="none"></path></g></g><mask></mask><g stroke-linecap="round"><g transform="translate(1048.2796039540315 1642.9898446988932) rotate(179.9999999999999 -5.684341886080802e-14 23.284027083149567)"><path d="M0 0 C0.46 9.42, -0.48 20.27, 0 46.57 M0 0 C-0.54 17.83, -0.05 36.41, 0 46.57" stroke="#1e1e1e" stroke-width="2" fill="none"></path></g></g><mask></mask><g stroke-linecap="round"><g transform="translate(1055.5554882359093 1642.3213895641438) rotate(179.9999999999999 -5.684341886080802e-14 23.434148102616973)"><path d="M0 0 C-0.15 15.38, 1.04 29.79, 0 46.87 M0 0 C-0.02 12.78, -0.05 25.33, 0 46.87" stroke="#c2255c" stroke-width="2" fill="none"></path></g></g><mask></mask><g stroke-linecap="round"><g transform="translate(1040.5533597637973 1642.3213895641438) rotate(179.9999999999999 -5.684341886080802e-14 23.89441447238505)"><path d="M0 0 C0.81 10.26, -0.39 21.48, 0 47.79 M0 0 C0.18 12.01, 0.38 23.48, 0 47.79" stroke="#2f9e44" stroke-width="2" fill="none"></path></g></g><mask></mask><g stroke-linecap="round"><g transform="translate(1015.096417720737 1777.8763366428548) rotate(0 -79.47635449582395 79.47635449582401)"><path d="M0 0 C-56.49 56.36, -114.27 111.18, -158.95 158.95 M0 0 C-48.97 50.76, -97.99 100.43, -158.95 158.95" stroke="#1e1e1e" stroke-width="2" fill="none"></path></g></g><mask></mask><g stroke-linecap="round"><g transform="translate(1081.228398160878 1777.8763366428548) rotate(0 79.50206146195933 79.50206146195933)"><path d="M0 0 C35.6 36.65, 72.74 72.87, 159 159 M0 0 C51.11 52.41, 104.42 104.48, 159 159" stroke="#1e1e1e" stroke-width="2" fill="none"></path></g></g><mask></mask><g stroke-linecap="round"><g transform="translate(1085.3551634677315 1774.4441394897276) rotate(0 79.43956643289778 79.43956643289766)"><path d="M0 0 C44.62 41.94, 86.4 87.47, 158.88 158.88 M0 0 C47.95 49.36, 98.32 98.38, 158.88 158.88" stroke="#c2255c" stroke-width="2" fill="none"></path></g></g><mask></mask><g stroke-linecap="round"><g transform="translate(1010.6020700563702 1773.9603817952798) rotate(0 -79.78020124021427 79.78020124021418)"><path d="M0 0 C-43.08 42.82, -84.71 84.33, -159.56 159.56 M0 0 C-58.21 58.11, -115.62 117.23, -159.56 159.56" stroke="#2f9e44" stroke-width="2" fill="none"></path></g></g><mask></mask><g stroke-linecap="round"><g transform="translate(790.4758719560833 2019.5483192334757) rotate(0 -14.412621166339918 14.412621166339932)"><path d="M0 0 C-10.87 10.6, -22.15 21.59, -28.83 28.83 M0 0 C-9.31 9.12, -17.99 17.93, -28.83 28.83" stroke="#1e1e1e" stroke-width="2" fill="none"></path></g></g><mask></mask><g stroke-linecap="round"><g transform="translate(856.6078523962243 2019.9489113496436) rotate(0 14.458417789887449 14.458417789887449)"><path d="M0 0 C7.73 7.2, 15.51 15.97, 28.92 28.92 M0 0 C7.86 8.14, 15.88 15.91, 28.92 28.92" stroke="#1e1e1e" stroke-width="2" fill="none"></path></g></g><mask></mask><g stroke-linecap="round"><g transform="translate(860.7346177030778 2016.1161220803485) rotate(0 14.384923780497843 14.384923780497843)"><path d="M0 0 C7.47 7.97, 14.53 13.94, 28.77 28.77 M0 0 C9.42 9.41, 19.2 19.41, 28.77 28.77" stroke="#c2255c" stroke-width="2" fill="none"></path></g></g><mask></mask><g stroke-linecap="round"><g transform="translate(785.9815242917165 2015.6323643859007) rotate(0 -15.069207194477983 15.069207194478054)"><path d="M0 0 C-7.55 6.61, -14.37 14.53, -30.14 30.14 M0 0 C-9.66 9.14, -18.93 18.39, -30.14 30.14" stroke="#2f9e44" stroke-width="2" fill="none"></path></g></g><mask></mask><g stroke-linecap="round"><g transform="translate(750.9491403295093 2059.3108945479917) rotate(0 -7.87856285617994 7.878562856179883)"><path d="M0 0 C-2.97 3.96, -7.68 6.81, -15.76 15.76 M0 0 C-5.78 6.36, -12.54 11.87, -15.76 15.76" stroke="#1e1e1e" stroke-width="2" fill="none"></path></g></g><mask></mask><g stroke-linecap="round"><g transform="translate(746.3216108025433 2055.528121563016) rotate(0 -7.712050587226429 7.712050587226372)"><path d="M0 0 C-4.5 3.69, -7.46 9.39, -15.42 15.42 M0 0 C-4.49 3.84, -8.37 8.16, -15.42 15.42" stroke="#2f9e44" stroke-width="2" fill="none"></path></g></g><mask></mask><g stroke-linecap="round"><g transform="translate(725.3260217483253 2084.936339514222) rotate(0 -7.832679920570001 7.832679920570058)"><path d="M0 0 C-6.2 5.8, -11.5 11.63, -15.67 15.67 M0 0 C-4.56 4.79, -10.05 9.46, -15.67 15.67" stroke="#1e1e1e" stroke-width="2" fill="none"></path></g></g><mask></mask><g stroke-linecap="round"><g transform="translate(720.6984922213595 2081.1535665292467) rotate(0 -7.666167651616604 7.666167651616547)"><path d="M0 0 C-3.96 4.03, -9.67 8.88, -15.33 15.33 M0 0 C-5.53 5.02, -10.43 10.29, -15.33 15.33" stroke="#2f9e44" stroke-width="2" fill="none"></path></g></g><mask></mask><g stroke-linecap="round"><g transform="translate(897.795674857962 2060.187698102596) rotate(0 8.05892579532204 8.058925795322011)"><path d="M0 0 C5.71 6.54, 12.01 11.35, 16.12 16.12 M0 0 C3.74 4.24, 7.91 8.33, 16.12 16.12" stroke="#1e1e1e" stroke-width="2" fill="none"></path></g></g><mask></mask><g stroke-linecap="round"><g transform="translate(901.9224401648155 2056.354908833301) rotate(0 7.884013861178602 7.884013861178573)"><path d="M0 0 C5.17 4.49, 8.92 9.12, 15.77 15.77 M0 0 C4.25 4.62, 8.39 8.62, 15.77 15.77" stroke="#c2255c" stroke-width="2" fill="none"></path></g></g><mask></mask><g stroke-linecap="round"><g transform="translate(926.8113640726376 2086.667939198426) rotate(0 8.05892579532204 8.058925795322011)"><path d="M0 0 C4.51 4.28, 10.32 10.28, 16.12 16.12 M0 0 C4.78 4.9, 8.97 8.85, 16.12 16.12" stroke="#1e1e1e" stroke-width="2" fill="none"></path></g></g><mask></mask><g stroke-linecap="round"><g transform="translate(930.9381293794911 2082.835149929131) rotate(0 7.884013861178602 7.884013861178573)"><path d="M0 0 C5.75 5.74, 9.55 10.67, 15.77 15.77 M0 0 C4.54 4.45, 9.83 9.59, 15.77 15.77" stroke="#c2255c" stroke-width="2" fill="none"></path></g></g><mask></mask><g transform="translate(934.5294439952506 1672.7736812183775) rotate(0 37.40800094604492 17.5)"><text x="37.40800094604492" y="0" font-family="Virgil, Segoe UI Emoji" font-size="28px" fill="#1e1e1e" text-anchor="middle" style="white-space: pre;" direction="ltr" dominant-baseline="text-before-edge">3078</text></g><g transform="translate(724.6534630915669 1899.6166313835874) rotate(0 37.22600173950195 17.5)"><text x="37.22600173950195" y="0" font-family="Virgil, Segoe UI Emoji" font-size="28px" fill="#1e1e1e" text-anchor="middle" style="white-space: pre;" direction="ltr" dominant-baseline="text-before-edge">3093</text></g><g stroke-linecap="round" transform="translate(596.4110831047735 1543.2340234407795) rotate(0 414.91321664548775 297.9440648333616)"><path d="M0 0 C198.79 1.66, 399.11 1.75, 829.83 0 M0 0 C264.36 1.32, 528.2 0.91, 829.83 0 M829.83 0 C829.52 222.59, 829.78 444.7, 829.83 595.89 M829.83 0 C830.73 203.57, 830.78 407.49, 829.83 595.89 M829.83 595.89 C630.47 594.63, 431.71 594.92, 0 595.89 M829.83 595.89 C561.38 599.06, 293.13 598.69, 0 595.89 M0 595.89 C1.13 405.43, 1.31 215.15, 0 0 M0 595.89 C2.1 475.81, 2.05 355.48, 0 0" stroke="#1e1e1e" stroke-width="2" fill="none"></path></g><g transform="translate(798.1797664417375 1480.186492266616) rotate(0 211.01400756835938 22.5)"><text x="211.01400756835938" y="0" font-family="Virgil, Segoe UI Emoji" font-size="36px" fill="#1e1e1e" text-anchor="middle" style="white-space: pre;" direction="ltr" dominant-baseline="text-before-edge">Dynamic Execution Tree</text></g></svg>