<svg version="1.1" xmlns="http://www.w3.org/2000/svg" viewBox="0 0 1908.551095802677 698.3875000068956" width="3817.102191605354" height="1396.7750000137912">
  <!-- svg-source:excalidraw -->
  
  <defs>
    <style class="style-fonts">
      @font-face {
        font-family: "Virgil";
        src: url("https://excalidraw.com/Virgil.woff2");
      }
      @font-face {
        font-family: "Cascadia";
        src: url("https://excalidraw.com/Cascadia.woff2");
      }
      @font-face {
        font-family: "Assistant";
        src: url("https://app.excalidraw.com//dist/excalidraw-assets/Assistant-Regular.woff2");
      }
    </style>
    
  </defs>
  <g stroke-linecap="round"><g transform="translate(1898.551095802677 688.3875000068956) rotate(0 -943.274320811043 0)"><path d="M0 0 C-745.02 -1.73, -1491.16 -1.51, -1886.55 0 M0 0 C-474.4 -3.52, -948.37 -4.06, -1886.55 0" stroke="#1e1e1e" stroke-width="2" fill="none"></path></g></g><mask></mask><g transform="translate(33.75323931536332 331.7412195478657) rotate(0 178.2899932861328 45)"><text x="178.2899932861328" y="0" font-family="Virgil, Segoe UI Emoji" font-size="36px" fill="#1e1e1e" text-anchor="middle" style="white-space: pre;" direction="ltr" dominant-baseline="text-before-edge">System under Test </text><text x="178.2899932861328" y="45" font-family="Virgil, Segoe UI Emoji" font-size="36px" fill="#1e1e1e" text-anchor="middle" style="white-space: pre;" direction="ltr" dominant-baseline="text-before-edge">(SuT)</text></g><g transform="translate(801.8885405172116 155.69420331426528) rotate(0 140.6160125732422 202.5)"><text x="0" y="0" font-family="Virgil, Segoe UI Emoji" font-size="36px" fill="#1e1e1e" text-anchor="start" style="white-space: pre;" direction="ltr" dominant-baseline="text-before-edge">...</text><text x="0" y="45" font-family="Virgil, Segoe UI Emoji" font-size="36px" fill="#1e1e1e" text-anchor="start" style="white-space: pre;" direction="ltr" dominant-baseline="text-before-edge">  12: ILOAD 1</text><text x="0" y="90" font-family="Virgil, Segoe UI Emoji" font-size="36px" fill="#1e1e1e" text-anchor="start" style="white-space: pre;" direction="ltr" dominant-baseline="text-before-edge">  13: IFNE 18</text><text x="0" y="135" font-family="Virgil, Segoe UI Emoji" font-size="36px" fill="#1e1e1e" text-anchor="start" style="white-space: pre;" direction="ltr" dominant-baseline="text-before-edge">  16: ICONST 0</text><text x="0" y="180" font-family="Virgil, Segoe UI Emoji" font-size="36px" fill="#1e1e1e" text-anchor="start" style="white-space: pre;" direction="ltr" dominant-baseline="text-before-edge">  17: IRETURN</text><text x="0" y="225" font-family="Virgil, Segoe UI Emoji" font-size="36px" fill="#1e1e1e" text-anchor="start" style="white-space: pre;" direction="ltr" dominant-baseline="text-before-edge">  18: ILOAD 1</text><text x="0" y="270" font-family="Virgil, Segoe UI Emoji" font-size="36px" fill="#1e1e1e" text-anchor="start" style="white-space: pre;" direction="ltr" dominant-baseline="text-before-edge">  19: ILOAD 2</text><text x="0" y="315" font-family="Virgil, Segoe UI Emoji" font-size="36px" fill="#1e1e1e" text-anchor="start" style="white-space: pre;" direction="ltr" dominant-baseline="text-before-edge">  20: IDIV</text><text x="0" y="360" font-family="Virgil, Segoe UI Emoji" font-size="36px" fill="#1e1e1e" text-anchor="start" style="white-space: pre;" direction="ltr" dominant-baseline="text-before-edge">...</text></g><g stroke-linecap="round" transform="translate(758.1127652311129 122.46260250337065) rotate(0 241.96759340432516 234.69818072694193)"><path d="M0 0 C137.37 1.36, 275.15 1.77, 483.94 0 M0 0 C149.25 0.7, 298.73 0.69, 483.94 0 M483.94 0 C484.04 144.55, 484.92 288.28, 483.94 469.4 M483.94 0 C486.19 144.41, 485.62 288.86, 483.94 469.4 M483.94 469.4 C386.52 468.48, 287.84 468.47, 0 469.4 M483.94 469.4 C366 469.79, 248.1 469.95, 0 469.4 M0 469.4 C0.39 360.26, 0.94 251.13, 0 0 M0 469.4 C-0.9 287.56, -0.78 106.4, 0 0" stroke="#1e1e1e" stroke-width="2" fill="none"></path></g><g transform="translate(922.1937942349043 66.38427613498612) rotate(0 80.63999938964844 22.5)"><text x="0" y="0" font-family="Virgil, Segoe UI Emoji" font-size="36px" fill="#1e1e1e" text-anchor="start" style="white-space: pre;" direction="ltr" dominant-baseline="text-before-edge">Bytecode</text></g><g stroke-linecap="round"><g transform="translate(729.7447575450201 132.03117814487206) rotate(0 0 10.641688535427313)"><path d="M0 0 C-0.23 6.11, 0.51 10.13, 0 21.28 M0 0 C-0.25 4.01, 0.03 8.69, 0 21.28" stroke="#c2255c" stroke-width="2" fill="none"></path></g></g><mask></mask><g stroke-linecap="round"><g transform="translate(729.1092221368718 166.1016468393537) rotate(0 0 10.641688535427313)"><path d="M0 0 C0.31 7.22, 0.79 16.52, 0 21.28 M0 0 C-0.31 8.46, -0.22 16.09, 0 21.28" stroke="#c2255c" stroke-width="2" fill="none"></path></g></g><mask></mask><g stroke-linecap="round"><g transform="translate(729.408410476371 196.6019564666991) rotate(0 0 80.0092225375877)"><path d="M0 0 C2 31.06, 0.37 63.81, 0 160.02 M0 0 C-0.5 56.19, -0.57 111.78, 0 160.02" stroke="#c2255c" stroke-width="2" fill="none"></path></g></g><mask></mask><g stroke-linecap="round" transform="translate(723.397540312611 346.9953479525263) rotate(0 6.250059543720283 6.250059543720283)"><path d="M6.51 0.22 C7.89 0.27, 10 1.39, 10.92 2.28 C11.84 3.17, 11.88 4.35, 12.02 5.57 C12.16 6.78, 12.51 8.39, 11.74 9.56 C10.97 10.73, 8.69 12.15, 7.39 12.58 C6.09 13.02, 5.04 12.77, 3.97 12.16 C2.89 11.56, 1.62 10.29, 0.95 8.96 C0.28 7.62, -0.33 5.44, -0.06 4.14 C0.2 2.84, 1.36 1.81, 2.54 1.17 C3.72 0.52, 6.24 0.39, 6.99 0.26 C7.75 0.14, 7.01 0.29, 7.04 0.39 M6.38 -0.34 C7.63 -0.14, 9.13 1.56, 10.27 2.45 C11.41 3.33, 13.07 3.7, 13.21 4.99 C13.35 6.28, 11.94 9.08, 11.09 10.2 C10.24 11.31, 9.34 11.38, 8.11 11.68 C6.89 11.97, 5.08 12.42, 3.74 11.96 C2.4 11.5, 0.68 10.24, 0.09 8.93 C-0.51 7.61, -0.12 5.35, 0.17 4.06 C0.46 2.76, 0.64 1.79, 1.84 1.15 C3.04 0.52, 6.48 0.34, 7.38 0.24 C8.29 0.14, 7.5 0.4, 7.25 0.55" stroke="none" stroke-width="0" fill="#c2255c"></path><path d="M5.38 -0.15 C6.59 -0.34, 7.89 0.38, 9.08 1.09 C10.28 1.79, 12.02 2.84, 12.56 4.07 C13.09 5.29, 12.83 7.1, 12.28 8.43 C11.74 9.76, 10.56 11.38, 9.3 12.06 C8.05 12.73, 6 12.82, 4.76 12.47 C3.52 12.12, 2.56 11, 1.85 9.95 C1.14 8.89, 0.63 7.46, 0.5 6.14 C0.36 4.82, 0.16 2.97, 1.05 2.01 C1.94 1.06, 4.99 0.74, 5.82 0.39 C6.65 0.05, 6.08 -0.14, 6.05 -0.05 M6.4 0.06 C7.73 -0.02, 9.68 0.29, 10.75 1.16 C11.81 2.04, 12.55 4.05, 12.81 5.31 C13.07 6.57, 13.13 7.59, 12.32 8.72 C11.51 9.84, 9.37 11.56, 7.95 12.07 C6.53 12.59, 5.07 12.31, 3.8 11.81 C2.52 11.31, 0.94 10.28, 0.3 9.05 C-0.33 7.83, -0.44 5.73, 0 4.45 C0.44 3.17, 1.99 2.14, 2.93 1.4 C3.88 0.65, 5.17 0.19, 5.68 -0.03 C6.18 -0.25, 5.89 -0.14, 5.96 0.08" stroke="#c2255c" stroke-width="2" fill="none"></path></g><g stroke-linecap="round"><g transform="translate(699.4362176345311 132.4749951262317) rotate(0 0 10.641688535427313)"><path d="M0 0 C0.23 6.77, 0.82 13.28, 0 21.28 M0 0 C-0.31 6.32, 0.07 12.72, 0 21.28" stroke="#2f9e44" stroke-width="2" fill="none"></path></g></g><mask></mask><g stroke-linecap="round"><g transform="translate(698.8006822263828 166.54546382071334) rotate(0 0 10.641688535427313)"><path d="M0 0 C0.82 9.46, -0.05 16.36, 0 21.28 M0 0 C0.08 7.23, -0.44 13.71, 0 21.28" stroke="#2f9e44" stroke-width="2" fill="none"></path></g></g><mask></mask><g stroke-linecap="round"><g transform="translate(699.099870565882 197.04577344805875) rotate(0 0 34.886612201527356)"><path d="M0 0 C0.41 24.13, 1.11 49.59, 0 69.77 M0 0 C-0.6 21.7, -0.26 44.16, 0 69.77" stroke="#2f9e44" stroke-width="2" fill="none"></path></g></g><mask></mask><g stroke-linecap="round" transform="translate(693.0890004021219 257.7766996688895) rotate(0 6.250059543720283 6.250059543720283)"><path d="M7.47 -0.13 C8.68 -0.06, 9.97 0.89, 10.81 2.01 C11.65 3.14, 12.52 5.17, 12.5 6.62 C12.48 8.08, 11.57 9.72, 10.68 10.74 C9.79 11.76, 8.52 12.56, 7.14 12.72 C5.75 12.88, 3.53 12.4, 2.36 11.7 C1.2 11.01, 0.52 9.79, 0.15 8.55 C-0.23 7.3, -0.46 5.55, 0.12 4.24 C0.69 2.92, 2.21 1.31, 3.6 0.65 C4.99 -0.01, 7.65 0.28, 8.47 0.29 C9.3 0.3, 8.73 0.56, 8.57 0.72 M5.23 0.36 C6.52 0.09, 8.61 0.69, 9.7 1.3 C10.8 1.91, 11.4 2.74, 11.79 4.01 C12.19 5.27, 12.58 7.56, 12.09 8.88 C11.59 10.21, 10.05 11.35, 8.83 11.95 C7.61 12.54, 6 12.82, 4.76 12.44 C3.51 12.07, 2.1 10.86, 1.33 9.7 C0.57 8.54, 0.13 6.66, 0.16 5.47 C0.2 4.29, 0.74 3.46, 1.55 2.58 C2.35 1.7, 4.47 0.54, 4.99 0.19 C5.52 -0.15, 4.65 0.34, 4.71 0.5" stroke="none" stroke-width="0" fill="#099268"></path><path d="M5.74 -0.35 C6.93 -0.64, 8.35 0.05, 9.41 0.78 C10.48 1.52, 11.78 2.71, 12.13 4.04 C12.49 5.37, 12.13 7.54, 11.55 8.77 C10.97 9.99, 9.73 10.86, 8.66 11.4 C7.59 11.95, 6.38 12.33, 5.15 12.02 C3.91 11.7, 2.06 10.46, 1.23 9.52 C0.4 8.58, 0.05 7.68, 0.15 6.36 C0.24 5.04, 0.8 2.57, 1.81 1.59 C2.81 0.6, 5.44 0.66, 6.18 0.46 C6.93 0.27, 6.36 0.41, 6.29 0.44 M6.32 -0.6 C7.64 -0.52, 10.39 0.65, 11.42 1.62 C12.45 2.59, 12.59 3.86, 12.53 5.21 C12.47 6.56, 11.82 8.62, 11.08 9.72 C10.33 10.83, 9.38 11.56, 8.08 11.84 C6.77 12.12, 4.42 12.02, 3.24 11.4 C2.07 10.77, 1.56 9.16, 1.04 8.11 C0.52 7.06, -0.12 6.21, 0.11 5.09 C0.35 3.96, 1.35 2.1, 2.45 1.34 C3.55 0.58, 5.91 0.73, 6.7 0.5 C7.49 0.27, 7.26 -0.12, 7.19 -0.06" stroke="#2f9e44" stroke-width="2" fill="none"></path></g><g stroke-linecap="round"><g transform="translate(699.8912956677731 528.7277301521221) rotate(0 0 10.641688535427306)"><path d="M0 0 C0.79 5.9, -0.03 9.7, 0 21.28 M0 0 C-0.08 6.96, 0.3 13.13, 0 21.28" stroke="#2f9e44" stroke-width="2" fill="none"></path></g></g><mask></mask><g stroke-linecap="round"><g transform="translate(699.2557602596248 562.7981988466038) rotate(0 0 10.641688535427306)"><path d="M0 0 C-0.01 5.25, 0.17 11.55, 0 21.28 M0 0 C0.32 4.89, 0.22 9.7, 0 21.28" stroke="#2f9e44" stroke-width="2" fill="none"></path></g></g><mask></mask><g stroke-linecap="round"><g transform="translate(699.5549485991239 400.87011333930303) rotate(0 0 57.021941322168516)"><path d="M0 0 C0.08 41.89, -1.49 84.68, 0 114.04 M0 0 C1.22 42.76, 1.08 85.57, 0 114.04" stroke="#2f9e44" stroke-width="2" fill="none"></path></g></g><mask></mask><g stroke-linecap="round" transform="translate(693.5440784353639 396.09350079089256) rotate(0 6.250059543720283 6.250059543720283)"><path d="M7.47 0.31 C8.8 0.48, 10.51 1.36, 11.33 2.42 C12.16 3.49, 12.45 5.42, 12.42 6.72 C12.39 8.03, 11.98 9.39, 11.16 10.27 C10.35 11.14, 8.85 11.86, 7.51 11.99 C6.16 12.12, 4.35 11.61, 3.1 11.05 C1.86 10.48, 0.48 9.76, 0.05 8.62 C-0.39 7.48, -0.1 5.59, 0.52 4.21 C1.15 2.82, 2.54 1.01, 3.8 0.3 C5.06 -0.41, 7.32 -0.04, 8.07 -0.07 C8.82 -0.11, 8.29 -0.12, 8.3 0.09 M7.58 -0.51 C8.8 -0.43, 9.67 1.72, 10.47 2.75 C11.27 3.79, 12.32 4.53, 12.39 5.68 C12.46 6.83, 11.76 8.43, 10.89 9.66 C10.02 10.9, 8.41 12.77, 7.16 13.07 C5.91 13.37, 4.65 12.32, 3.41 11.46 C2.18 10.6, 0.33 9.03, -0.26 7.93 C-0.84 6.82, -0.53 6, -0.13 4.84 C0.28 3.69, 0.85 1.72, 2.15 0.99 C3.46 0.27, 6.84 0.57, 7.69 0.5 C8.54 0.43, 7.39 0.57, 7.25 0.58" stroke="none" stroke-width="0" fill="#099268"></path><path d="M6.07 0.24 C7.25 0.1, 9.01 0.68, 10.02 1.52 C11.04 2.37, 11.84 4.03, 12.16 5.32 C12.49 6.61, 12.55 8.1, 11.97 9.27 C11.39 10.43, 9.9 11.85, 8.68 12.31 C7.45 12.78, 5.88 12.48, 4.64 12.07 C3.4 11.67, 1.93 11.02, 1.24 9.9 C0.55 8.77, 0.39 6.65, 0.51 5.32 C0.63 3.99, 1.03 2.83, 1.95 1.92 C2.87 1.01, 5.23 0.14, 6.04 -0.15 C6.85 -0.44, 6.75 0.02, 6.79 0.19 M6.66 -0.4 C7.94 -0.58, 8.86 -0.09, 9.89 0.84 C10.93 1.77, 12.59 3.71, 12.88 5.17 C13.17 6.62, 12.37 8.32, 11.62 9.59 C10.88 10.85, 9.55 12.32, 8.39 12.77 C7.23 13.22, 5.88 12.9, 4.68 12.29 C3.48 11.68, 1.89 10.26, 1.19 9.1 C0.49 7.95, 0.28 6.61, 0.51 5.38 C0.74 4.15, 1.55 2.6, 2.58 1.74 C3.6 0.87, 6.18 0.5, 6.67 0.18 C7.16 -0.14, 5.5 -0.32, 5.5 -0.19" stroke="#2f9e44" stroke-width="2" fill="none"></path></g><g stroke-linecap="round"><g transform="translate(1896.548641622086 10.963958536377902) rotate(0 -943.274320811043 0)"><path d="M0 0 C-395.84 -1.46, -792.03 -1.1, -1886.55 0 M0 0 C-547.64 1.64, -1094.69 1.97, -1886.55 0" stroke="#1e1e1e" stroke-width="2" fill="none"></path></g></g><mask></mask></svg>